<?xml version="1.0" standalone="no"?>
<!DOCTYPE svg PUBLIC "-//W3C//DTD SVG 20010904//EN"
 "http://www.w3.org/TR/2001/REC-SVG-20010904/DTD/svg10.dtd">
<svg version="1.0" xmlns="http://www.w3.org/2000/svg"
 width="256.000000pt" height="256.000000pt" viewBox="0 0 256.000000 256.000000"
 preserveAspectRatio="xMidYMid meet">
<metadata>
Created by potrace 1.15, written by Peter Selinger 2001-2017
</metadata>
<g transform="translate(0.000000,256.000000) scale(0.100000,-0.100000)"
fill="#000000" stroke="none">
<path d="M1048 2544 c-261 -47 -496 -173 -685 -367 -106 -109 -167 -193 -228
-313 -93 -181 -135 -365 -135 -584 0 -219 38 -385 130 -573 122 -246 343 -466
588 -583 182 -87 351 -124 562 -124 271 0 496 67 724 217 91 60 279 248 339
339 101 154 172 331 202 498 20 115 20 337 0 452 -44 251 -161 478 -342 665
-195 201 -430 327 -700 374 -107 19 -350 18 -455 -1z m-51 -570 c22 -13 56
-42 75 -64 l34 -41 39 18 c57 25 339 26 404 1 l44 -17 46 48 c47 49 124 96
141 86 26 -16 38 -141 20 -204 -8 -30 -6 -39 20 -75 46 -64 63 -148 58 -290
-5 -149 -24 -201 -104 -276 -60 -57 -132 -94 -215 -112 l-56 -11 18 -41 c16
-36 19 -68 19 -244 l0 -202 -191 2 -192 3 2 93 2 92 -83 0 c-138 0 -207 45
-279 182 -19 35 -53 82 -76 106 -56 55 -55 66 3 59 57 -6 86 -27 144 -103 58
-75 112 -104 193 -104 72 0 97 12 97 48 0 15 9 45 19 68 l18 41 -56 11 c-132
28 -241 107 -289 210 -24 50 -27 72 -30 179 -4 142 12 225 58 290 25 37 28 46
19 75 -12 44 -11 109 2 164 13 51 20 51 96 8z"/>
</g>
</svg>
