<?xml version="1.0" encoding="UTF-8" ?>
<!DOCTYPE svg PUBLIC "-//W3C//DTD SVG 1.1//EN" "http://www.w3.org/Graphics/SVG/1.1/DTD/svg11.dtd">
<svg width="256pt" height="256pt" viewBox="0 0 256 256" version="1.1" xmlns="http://www.w3.org/2000/svg">
<g id="#333333ff">
<path fill="#333333" opacity="1.00" d=" M 125.33 0.00 L 130.62 0.00 C 161.87 0.59 192.70 13.08 215.43 34.55 C 240.45 57.72 255.37 91.23 256.00 125.33 L 256.00 134.00 C 254.70 154.52 249.02 174.86 238.49 192.59 C 222.09 220.80 194.51 242.27 163.08 251.09 C 153.69 253.88 143.94 255.13 134.21 256.00 L 125.39 256.00 C 93.65 255.39 62.36 242.52 39.52 220.46 C 15.11 197.34 0.60 164.27 0.00 130.65 L 0.00 125.34 C 0.60 91.48 15.32 58.18 40.04 35.02 C 62.81 13.27 93.86 0.60 125.33 0.00 M 90.85 55.36 C 90.20 59.60 88.53 63.69 88.69 68.04 C 88.51 72.14 90.11 75.96 90.88 79.92 C 81.96 87.88 81.68 100.85 81.56 111.92 C 81.07 120.04 83.15 128.30 87.68 135.09 C 95.02 145.51 107.61 151.19 120.05 152.25 C 116.92 156.29 115.51 161.49 115.53 166.55 C 107.42 169.87 97.12 168.71 90.90 162.21 C 87.26 159.04 85.79 154.12 81.98 151.10 C 78.13 147.38 72.45 146.67 67.36 147.53 C 67.35 150.09 70.14 150.85 71.64 152.40 C 77.26 157.52 80.15 164.75 83.92 171.18 C 90.59 181.30 104.25 184.50 115.48 181.35 C 115.53 187.82 115.51 194.30 115.48 200.77 C 128.49 200.79 141.49 200.79 154.50 200.78 C 154.49 189.84 154.48 178.91 154.49 167.98 C 154.56 162.47 153.14 156.83 149.94 152.29 C 160.88 151.18 172.03 146.89 179.48 138.51 C 186.32 131.22 188.95 120.82 188.39 111.01 C 188.18 100.25 187.80 87.67 179.11 79.97 C 179.79 75.95 181.49 72.11 181.30 67.97 C 181.43 63.65 179.74 59.61 179.15 55.39 C 170.59 55.41 164.14 62.51 159.55 69.01 C 152.50 65.66 144.67 64.86 136.96 64.74 C 128.00 64.63 118.68 65.04 110.49 69.04 C 105.74 62.63 99.45 55.45 90.85 55.36 Z" />
</g>
</svg>
