<?xml version="1.0" standalone="no"?>
<!DOCTYPE svg PUBLIC "-//W3C//DTD SVG 20010904//EN"
 "http://www.w3.org/TR/2001/REC-SVG-20010904/DTD/svg10.dtd">
<svg version="1.0" xmlns="http://www.w3.org/2000/svg"
 width="256.000000pt" height="256.000000pt" viewBox="0 0 256.000000 256.000000"
 preserveAspectRatio="xMidYMid meet">
<metadata>
Created by potrace 1.15, written by Peter Selinger 2001-2017
</metadata>
<g transform="translate(0.000000,256.000000) scale(0.100000,-0.100000)"
fill="#000000" stroke="none">
<path d="M1048 2544 c-261 -47 -496 -173 -685 -367 -106 -109 -167 -193 -228
-313 -93 -181 -135 -365 -135 -584 0 -219 38 -385 130 -573 122 -246 343 -466
588 -583 182 -87 351 -124 562 -124 271 0 496 67 724 217 91 60 279 248 339
339 101 154 172 331 202 498 20 115 20 337 0 452 -44 251 -161 478 -342 665
-195 201 -430 327 -700 374 -107 19 -350 18 -455 -1z m990 -806 l-3 -63 -378
-232 -379 -233 -379 232 -379 232 0 63 0 63 760 0 761 0 -3 -62z m-1274 -293
c91 -55 165 -105 163 -112 -2 -12 -397 -513 -403 -513 -2 0 -4 174 -4 386 l0
386 39 -23 c22 -13 114 -69 205 -124z m1276 -240 c0 -212 -2 -385 -4 -385 -7
0 -408 507 -408 516 0 7 392 253 405 254 4 0 7 -173 7 -385z m-900 9 l139 -85
141 87 c134 82 142 86 155 68 7 -11 103 -131 213 -269 l199 -250 -354 -3
c-194 -1 -512 -1 -707 0 l-354 3 211 267 c117 147 213 268 214 268 2 0 66 -39
143 -86z"/>
</g>
</svg>
