<?xml version="1.0" standalone="no"?>
<!DOCTYPE svg PUBLIC "-//W3C//DTD SVG 20010904//EN"
 "http://www.w3.org/TR/2001/REC-SVG-20010904/DTD/svg10.dtd">
<svg version="1.0" xmlns="http://www.w3.org/2000/svg"
 width="512.000000pt" height="512.000000pt" viewBox="0 0 512.000000 512.000000"
 preserveAspectRatio="xMidYMid meet">
<metadata>
Created by potrace 1.15, written by Peter Selinger 2001-2017
</metadata>
<g transform="translate(0.000000,512.000000) scale(0.100000,-0.100000)"
fill="#000000" stroke="none">
<path d="M2226 5104 c-890 -114 -1669 -705 -2024 -1534 -94 -217 -158 -455
-187 -690 -20 -163 -20 -477 0 -640 68 -552 310 -1055 700 -1459 300 -310 640
-524 1040 -656 271 -89 500 -125 805 -125 305 0 534 36 805 125 400 132 740
346 1040 656 390 404 632 907 700 1459 20 163 20 477 0 640 -92 746 -514 1419
-1150 1833 -323 210 -692 344 -1075 392 -155 19 -502 18 -654 -1z m-5 -904
c481 -49 871 -296 1061 -675 28 -56 88 -219 88 -241 0 -2 -53 -4 -118 -4 -308
0 -586 -101 -828 -302 -159 -131 -273 -314 -320 -514 -20 -87 -14 -309 11
-398 13 -48 14 -60 3 -67 -28 -18 -282 10 -433 47 l-100 25 -100 -54 c-55 -29
-153 -81 -217 -115 l-117 -63 64 190 63 190 -67 49 c-204 152 -362 393 -417
637 -27 118 -24 302 5 420 105 417 488 752 971 850 166 34 291 41 451 25z
m1266 -1009 c248 -48 440 -146 598 -305 115 -116 204 -261 240 -391 40 -148
28 -356 -29 -503 -50 -127 -171 -279 -300 -376 l-74 -55 49 -152 c27 -84 46
-155 43 -158 -3 -3 -20 3 -37 13 -18 10 -95 51 -172 91 l-140 73 -92 -23
c-231 -60 -544 -47 -748 29 -344 130 -589 393 -651 699 -22 108 -15 274 16
372 115 363 420 614 839 689 116 21 341 20 458 -3z"/>
<path d="M1555 3651 c-124 -57 -151 -208 -54 -295 68 -62 150 -71 220 -23 123
83 109 257 -26 318 -51 23 -89 23 -140 0z"/>
<path d="M2465 3659 c-54 -15 -103 -74 -119 -142 -8 -34 9 -102 36 -140 62
-87 224 -87 286 0 103 145 -32 333 -203 282z"/>
<path d="M2876 2720 c-113 -35 -131 -210 -27 -265 102 -52 231 30 217 139 -11
90 -105 152 -190 126z"/>
<path d="M3584 2711 c-47 -21 -80 -59 -89 -102 -10 -45 35 -132 79 -153 108
-51 230 33 211 145 -9 52 -56 105 -103 119 -48 13 -50 13 -98 -9z"/>
</g>
</svg>
