<?xml version="1.0" encoding="UTF-8" ?>
<!DOCTYPE svg PUBLIC "-//W3C//DTD SVG 1.1//EN" "http://www.w3.org/Graphics/SVG/1.1/DTD/svg11.dtd">
<svg width="512pt" height="512pt" viewBox="0 0 512 512" version="1.1" xmlns="http://www.w3.org/2000/svg">
<g id="#333333ff">
<path fill="#333333" opacity="1.00" d=" M 249.38 0.00 L 262.54 0.00 C 299.77 1.06 336.80 10.06 370.10 26.83 C 419.58 51.39 460.64 92.45 485.19 141.94 C 501.81 174.94 510.75 211.61 512.00 248.51 L 512.00 263.47 C 510.73 301.62 501.17 339.52 483.50 373.39 C 467.10 405.21 443.87 433.45 415.94 455.83 C 386.16 479.72 350.97 496.88 313.76 505.46 C 297.27 509.32 280.39 511.28 263.49 512.00 L 248.55 512.00 C 206.67 510.66 165.14 499.15 128.83 478.17 C 78.66 449.53 38.70 403.42 17.70 349.58 C 6.83 322.51 1.26 293.50 0.00 264.40 L 0.00 249.43 C 1.02 215.47 8.49 181.65 22.64 150.72 C 43.09 105.22 77.26 66.06 119.46 39.47 C 158.15 14.87 203.56 1.22 249.38 0.00 M 190.09 92.13 C 161.85 95.57 133.92 106.45 112.89 125.98 C 98.84 138.74 87.14 154.66 81.54 172.97 C 76.21 189.76 75.95 208.01 79.91 225.11 C 87.38 251.54 104.41 275.32 127.74 289.97 C 123.56 302.70 119.03 315.33 115.09 328.14 C 129.12 320.96 142.87 313.25 156.84 305.95 C 158.69 304.74 160.89 305.50 162.83 306.05 C 179.27 311.04 196.53 313.02 213.69 312.53 C 210.11 301.06 208.02 288.96 208.94 276.94 C 209.73 262.33 215.20 248.25 222.99 235.98 C 232.35 221.23 246.16 209.86 261.09 201.05 C 283.91 187.93 310.90 181.63 337.15 184.37 C 331.79 159.37 317.21 136.51 297.16 120.71 C 286.35 112.10 273.85 105.88 261.03 100.87 C 238.54 92.20 213.99 89.59 190.09 92.13 M 311.15 191.20 C 291.78 193.33 272.85 199.95 256.53 210.60 C 237.08 223.70 222.70 244.18 217.32 267.03 C 213.00 287.30 217.04 309.15 228.30 326.55 C 242.91 348.36 265.54 364.69 290.97 371.36 C 315.08 377.44 340.92 377.15 364.71 369.77 C 366.36 369.09 367.96 370.14 369.46 370.73 C 380.60 375.81 390.90 382.51 401.87 387.92 C 399.82 376.93 395.60 366.45 392.21 355.82 C 406.31 346.99 418.15 334.66 426.36 320.19 C 435.49 302.83 437.79 282.02 432.72 263.08 C 429.69 251.29 423.40 240.58 415.94 231.06 C 409.71 222.95 401.93 216.14 393.47 210.44 C 369.34 194.76 339.71 188.01 311.15 191.20 Z" />
<path fill="#333333" opacity="1.00" d=" M 157.54 145.99 C 168.02 142.62 179.87 151.06 180.55 161.92 C 181.74 172.27 172.40 182.21 162.01 181.68 C 152.99 181.67 144.83 174.08 144.31 165.05 C 143.40 156.59 149.29 148.09 157.54 145.99 Z" />
<path fill="#333333" opacity="1.00" d=" M 247.54 145.82 C 256.42 143.24 266.54 148.60 269.47 157.33 C 272.19 164.38 269.48 172.93 263.51 177.45 C 257.31 182.31 247.79 182.34 241.56 177.52 C 236.20 173.47 233.41 166.20 234.79 159.62 C 236.07 153.09 241.12 147.60 247.54 145.82 Z" />
<path fill="#333333" opacity="1.00" d=" M 288.59 239.77 C 296.61 237.58 305.52 243.64 306.55 251.86 C 308.34 261.33 298.35 270.51 289.05 268.02 C 281.35 266.64 275.99 258.13 278.01 250.59 C 279.17 245.39 283.49 241.15 288.59 239.77 Z" />
<path fill="#333333" opacity="1.00" d=" M 360.65 239.85 C 369.75 237.10 379.55 245.75 378.60 255.04 C 378.26 263.48 369.12 269.94 361.01 267.69 C 354.08 266.54 349.97 259.50 349.29 253.03 C 349.86 246.87 354.76 241.50 360.65 239.85 Z" />
</g>
</svg>
