<?xml version="1.0" standalone="no"?>
<!DOCTYPE svg PUBLIC "-//W3C//DTD SVG 20010904//EN"
 "http://www.w3.org/TR/2001/REC-SVG-20010904/DTD/svg10.dtd">
<svg version="1.0" xmlns="http://www.w3.org/2000/svg"
 width="750.000000pt" height="500.000000pt" viewBox="0 0 750.000000 500.000000"
 preserveAspectRatio="xMidYMid meet">
<metadata>
Created by potrace 1.15, written by Peter Selinger 2001-2017
</metadata>
<g transform="translate(0.000000,500.000000) scale(0.100000,-0.100000)"
fill="#000000" stroke="none">
<path d="M0 2500 l0 -2500 3750 0 3750 0 0 2500 0 2500 -3750 0 -3750 0 0
-2500z m2228 2331 c17 -16 41 -49 52 -74 11 -25 34 -57 50 -71 17 -13 30 -29
30 -34 0 -13 25 -22 63 -22 22 0 28 -3 18 -9 -7 -5 -29 -5 -50 0 -20 5 -43 8
-51 8 -13 0 -13 -1 0 -9 13 -7 50 -13 115 -19 6 -1 3 -6 -5 -11 -8 -5 -47 -10
-87 -10 -70 0 -97 -10 -71 -27 7 -4 23 -6 36 -4 17 2 22 -3 22 -18 0 -12 -5
-21 -12 -21 -9 0 -9 -3 -1 -11 13 -13 33 -4 33 17 0 8 7 14 15 14 18 0 18 4 4
-157 -14 -163 -5 -283 24 -319 20 -26 21 -26 28 -5 5 11 15 21 24 21 8 0 15 5
15 11 0 6 -7 8 -16 5 -8 -3 -12 -2 -9 4 3 5 -6 17 -20 26 -14 9 -25 26 -25 37
0 20 1 20 26 -4 l26 -24 -7 25 c-7 23 -6 24 9 10 16 -12 17 -12 14 1 -1 9 11
27 27 42 20 18 25 27 15 27 -8 1 -1 8 15 15 24 11 26 14 10 15 -14 1 -12 4 10
11 18 5 41 5 58 -1 26 -9 40 3 15 13 -8 3 -6 6 5 6 9 1 17 -3 17 -8 0 -11 56
-21 115 -22 49 -1 127 -28 119 -41 -4 -6 2 -7 15 -3 12 4 21 2 21 -4 0 -6 9
-11 20 -11 12 0 20 -7 20 -17 0 -14 2 -15 9 -5 6 10 10 9 14 -7 3 -13 14 -21
29 -22 21 0 21 -1 4 -8 -19 -7 -19 -8 3 -14 19 -5 21 -9 12 -26 -15 -27 -14
-87 2 -103 7 -7 14 -35 15 -63 2 -32 -1 -45 -7 -36 -10 15 -26 -2 -17 -18 7
-11 -17 -21 -51 -21 -15 0 -41 -12 -60 -26 -26 -20 -37 -23 -47 -14 -8 6 -26
8 -40 4 -18 -4 -26 -2 -26 7 0 11 -3 11 -11 -1 -8 -11 -9 -8 -4 15 4 16 4 27
0 23 -4 -3 -26 15 -50 40 -24 25 -42 48 -40 50 2 2 18 -4 36 -13 31 -16 33
-16 46 1 17 23 17 54 -1 54 -20 0 -120 -42 -128 -55 -5 -6 -8 -3 -8 8 0 9 -4
17 -10 17 -5 0 -10 -6 -10 -14 0 -9 -12 -16 -27 -18 -29 -3 -143 22 -143 32 0
3 25 6 55 6 30 0 49 -4 42 -8 -8 -5 -4 -8 11 -8 22 0 22 1 7 30 -14 26 -21 30
-59 30 -23 0 -57 -7 -74 -16 -18 -8 -46 -16 -63 -16 -30 -1 -31 -2 -13 -15 19
-14 18 -14 -1 -11 -11 2 -23 7 -27 12 -8 12 2 37 13 30 12 -7 12 19 0 31 -6 6
-6 29 0 60 12 63 22 212 20 289 -2 56 -6 65 -53 123 -27 35 -57 63 -67 63 -9
0 -26 6 -37 14 -18 14 -18 15 -1 21 23 9 22 20 -3 22 -11 1 -18 -2 -15 -8 4
-5 -6 -9 -20 -9 -19 0 -25 -5 -23 -16 2 -10 -3 -19 -11 -22 -9 -3 -11 0 -6 7
4 8 -5 7 -29 -3 -31 -13 -36 -13 -36 0 0 7 5 14 11 14 6 0 8 9 4 21 -5 16 -4
20 6 14 8 -4 3 2 -11 13 l-25 21 28 10 c41 16 49 14 38 -8 -8 -14 -7 -22 3
-30 18 -15 49 -2 43 18 -12 42 -11 46 10 49 14 2 32 -6 48 -22 25 -25 52 -36
41 -17 -4 5 -2 11 4 13 19 6 -36 54 -76 66 -55 16 -97 15 -141 -3 -56 -24 -80
-20 -88 14 -15 68 49 110 165 110 69 1 78 -2 108 -28z m3058 -446 c38 -11 59
-25 84 -56 37 -46 37 -46 -45 -83 -74 -34 -100 -39 -116 -20 -10 13 -10 17 0
24 9 5 10 10 2 14 -7 5 -6 14 5 31 10 15 12 25 5 30 -6 3 -11 -1 -11 -9 0 -8
-5 -18 -12 -22 -8 -5 -9 0 -5 15 4 17 2 21 -9 17 -18 -7 -18 -4 7 38 24 41 27
41 95 21z m-347 -226 c12 -13 21 -17 26 -10 9 15 25 4 19 -13 -3 -7 1 -16 9
-19 23 -9 52 -1 49 13 -2 8 3 10 15 5 10 -4 26 -10 36 -12 19 -6 23 -43 7 -74
-9 -16 -15 -17 -31 -8 -11 5 -34 7 -50 4 -25 -6 -29 -10 -23 -28 4 -12 8 -31
9 -42 1 -11 3 -23 4 -28 0 -4 16 0 34 10 17 9 37 16 43 15 6 -1 19 9 28 23 15
23 15 24 -1 18 -15 -5 -16 -3 -6 8 8 7 35 13 65 13 46 1 54 -2 67 -25 17 -30
8 -70 -11 -51 -16 16 -28 15 -28 0 0 -21 14 -35 40 -41 20 -5 27 -1 38 20 6
15 12 31 12 37 0 16 71 76 97 82 34 9 45 -6 51 -65 4 -47 3 -51 -18 -51 -12 0
-35 -9 -51 -21 -16 -11 -33 -17 -39 -14 -6 4 -10 -6 -10 -24 0 -17 -4 -31 -10
-31 -5 0 -10 5 -10 11 0 5 -4 7 -10 4 -5 -3 -10 -1 -10 6 0 26 -22 -9 -24 -38
-2 -17 -6 -35 -10 -41 -4 -7 -1 -12 7 -12 18 0 57 -54 57 -80 0 -27 -22 -70
-49 -94 -21 -19 -21 -19 -22 15 l-1 34 -8 -33 c-4 -18 -9 -34 -11 -36 -34 -25
-83 -46 -101 -43 -13 2 -18 2 -12 0 16 -6 34 -49 34 -81 0 -15 -11 -45 -24
-67 l-23 -40 25 -47 c14 -26 28 -45 33 -43 12 8 5 -21 -10 -39 -20 -24 -37
-19 -70 21 -37 45 -37 49 -9 82 13 14 16 20 8 14 -8 -7 -23 -13 -34 -13 -20 1
-20 1 -3 14 9 7 17 16 17 20 0 4 7 14 15 22 21 22 19 33 -10 46 -33 15 -55 -2
-35 -27 10 -12 10 -15 -1 -15 -8 0 -32 -29 -54 -64 -22 -36 -43 -62 -47 -60
-7 5 -2 125 8 159 3 13 -7 6 -30 -20 -19 -22 -35 -48 -36 -59 0 -13 -5 -16
-17 -11 -10 4 -26 8 -35 10 -25 5 -42 16 -82 53 -39 35 -59 41 -49 15 4 -13 3
-15 -6 -7 -6 6 -15 30 -19 55 -8 49 -36 65 -59 33 -7 -10 -13 -15 -13 -11 0 4
-9 3 -19 -3 -11 -5 -22 -6 -25 -2 -3 5 6 15 19 22 13 7 22 17 19 22 -3 4 -12
1 -20 -7 -17 -17 -42 -19 -64 -5 -18 11 -10 21 19 23 24 2 28 12 6 21 -38 14
34 66 92 66 15 0 43 -9 62 -21 34 -21 35 -21 50 -1 9 11 29 28 44 37 19 12 24
21 17 25 -9 5 -9 9 -1 14 13 9 33 -2 26 -14 -3 -4 1 -10 9 -13 21 -8 56 3 56
18 0 27 27 37 69 25 23 -6 41 -15 41 -21 0 -6 -15 -42 -34 -80 -33 -66 -34
-71 -19 -100 8 -17 17 -29 18 -27 2 2 6 23 9 48 5 47 20 64 69 82 l28 10 -25
27 c-19 20 -22 30 -15 44 8 13 6 17 -6 17 -8 0 -15 9 -15 20 0 25 17 26 23 3
3 -14 6 -12 15 9 10 24 17 28 52 26 22 -1 41 1 43 3 1 2 9 18 18 34 12 23 21
29 41 27 21 -2 27 3 31 25 4 20 0 34 -14 48 -13 13 -19 15 -19 6 0 -9 -4 -10
-12 -4 -7 6 -30 11 -52 11 -38 1 -38 1 -21 -18 23 -25 14 -46 -30 -67 -19 -9
-35 -21 -35 -25 0 -5 9 -4 20 2 11 6 20 8 20 5 0 -3 -15 -12 -32 -20 -18 -8
-27 -14 -20 -15 6 0 12 -5 12 -11 0 -6 -9 -8 -21 -4 -14 5 -25 1 -34 -12 -9
-10 -14 -13 -15 -5 0 6 -9 12 -19 12 -11 0 -27 7 -36 17 -14 14 -18 14 -26 2
-7 -12 -9 -11 -9 2 0 9 10 29 22 44 l21 27 -31 -7 c-32 -7 -41 2 -21 22 7 7 7
13 1 17 -5 3 -16 -1 -23 -10 -10 -12 -10 -22 0 -51 16 -45 5 -57 -40 -46 -23
6 -45 24 -68 54 -39 52 -51 59 -51 29 0 -22 -29 -80 -41 -80 -14 0 -40 38 -29
45 14 9 1 28 -16 21 -8 -3 -26 16 -49 53 -39 66 -43 85 -17 100 9 6 13 11 7
12 -5 1 -14 2 -20 4 -5 1 -22 3 -37 3 -16 1 -28 9 -30 19 -2 11 -13 18 -28 18
-18 0 -25 5 -25 19 0 53 165 77 235 34 l35 -21 -32 -14 c-42 -17 -42 -33 0
-33 43 0 77 -31 77 -71 0 -29 1 -30 22 -15 27 19 38 20 39 4 0 -7 13 -24 30
-36 l29 -24 20 24 c11 12 19 26 20 31 0 12 44 7 64 -8 10 -8 23 -12 27 -9 15
9 10 20 -11 21 -34 3 -58 34 -56 76 l1 38 -27 -33 -27 -33 -26 27 c-14 15 -25
33 -25 40 0 9 3 9 10 -2 5 -8 10 -10 10 -4 0 21 -29 36 -76 39 -59 4 -72 16
-51 48 17 27 62 40 106 31 16 -3 36 -2 44 2 33 18 86 15 106 -7z m-3219 -19
c36 -13 74 -29 85 -36 11 -8 26 -14 34 -14 8 0 22 -6 30 -14 9 -8 57 -31 106
-51 50 -20 97 -43 106 -51 20 -18 62 -99 62 -119 0 -8 3 -12 7 -10 3 2 12 0
20 -5 11 -7 12 -13 1 -36 -9 -20 -15 -24 -23 -16 -18 18 -59 14 -81 -5 -18
-17 -20 -17 -52 20 -35 40 -58 46 -87 20 -17 -15 -18 -15 -18 8 1 13 7 35 15
49 8 14 14 37 15 52 0 23 -4 27 -30 26 -25 -1 -28 -3 -17 -16 11 -13 9 -14
-13 -2 -14 7 -37 21 -52 31 -14 11 -37 19 -51 19 -13 0 -44 7 -68 16 -32 12
-79 17 -169 17 -195 1 -228 -1 -237 -16 -4 -7 -21 -21 -37 -31 -45 -29 -84
-76 -92 -110 -11 -53 -31 -82 -84 -122 -72 -55 -91 -100 -89 -211 0 -48 6
-106 12 -129 10 -39 13 -42 61 -54 97 -24 216 -111 216 -156 0 -28 8 -33 60
-38 34 -4 48 -12 72 -40 16 -20 34 -36 41 -36 6 0 30 -9 54 -21 34 -16 47 -18
58 -9 7 6 12 17 9 23 -2 7 5 26 16 44 21 35 82 55 103 34 8 -8 8 -11 0 -11 -6
0 -16 -13 -23 -30 -7 -16 -16 -30 -21 -30 -5 0 -13 -9 -19 -21 -11 -19 -9 -20
27 -13 104 18 183 45 183 63 0 4 38 34 84 66 71 48 93 70 138 139 39 60 53 91
55 121 1 22 2 47 2 56 1 11 9 14 29 11 34 -5 46 8 60 67 11 46 6 74 -9 50 -6
-11 -13 -9 -31 7 -42 38 -95 64 -129 64 -44 0 -68 15 -52 31 9 9 22 6 56 -10
70 -34 99 -32 116 7 8 17 22 32 31 32 10 0 26 21 43 58 14 31 37 82 51 112 18
41 26 51 31 38 4 -9 13 -14 20 -11 11 4 13 -3 10 -29 -6 -40 -74 -181 -74
-154 -1 26 -9 17 -15 -18 -3 -15 -10 -33 -16 -40 -11 -14 -10 -66 1 -66 11 0
8 -131 -3 -169 -7 -22 -7 -36 -1 -40 19 -12 23 -48 10 -86 -11 -30 -21 -41
-44 -47 -17 -5 -34 -18 -41 -33 -6 -14 -16 -25 -22 -25 -5 0 -10 -4 -10 -10 0
-5 9 -10 20 -10 11 0 20 -3 20 -7 -1 -11 -30 -49 -30 -39 0 5 -7 3 -15 -4 -9
-7 -14 -19 -11 -27 3 -8 1 -11 -4 -8 -6 4 -13 -7 -16 -24 -4 -20 -11 -28 -20
-24 -8 3 -15 -1 -15 -8 -1 -8 -2 -21 -3 -29 0 -9 -9 -14 -19 -12 -10 2 -36
-13 -59 -32 -22 -20 -57 -41 -77 -47 -20 -6 -44 -19 -54 -27 -15 -14 -20 -14
-27 -2 -7 11 -16 10 -55 -4 -25 -10 -55 -16 -66 -13 -15 4 -19 2 -15 -9 7 -18
-32 -29 -111 -29 l-62 0 6 -96 c6 -103 -2 -189 -18 -189 -6 0 -8 4 -4 9 3 5 1
12 -4 15 -11 7 -21 -17 -21 -50 0 -70 -45 -135 -79 -114 -9 5 -8 9 6 15 10 5
21 9 25 9 17 2 15 12 -2 13 -11 1 -20 -3 -20 -8 0 -6 -12 -8 -28 -4 -20 4 -33
1 -42 -10 -8 -9 -21 -13 -34 -10 -16 5 -18 4 -6 -4 19 -13 9 -22 -18 -14 -12
3 -21 10 -20 17 1 6 -3 21 -10 33 -10 18 -9 24 5 33 14 9 14 10 2 7 -24 -8
-47 25 -41 61 4 28 2 30 -19 25 -14 -2 -20 -1 -14 4 6 4 11 16 12 26 1 15 -4
17 -23 13 -28 -7 -32 8 -7 23 14 7 15 12 5 24 -7 8 -10 21 -6 30 4 12 1 14
-17 10 -16 -4 -20 -2 -17 8 3 8 -1 32 -9 54 -15 44 -9 121 8 94 5 -9 9 -10 9
-2 0 6 -4 14 -10 18 -5 3 -6 13 -3 21 4 10 1 15 -8 14 -32 -5 -47 1 -52 22 -4
12 -1 25 4 29 6 3 -1 9 -15 13 -22 5 -25 11 -21 34 3 15 2 21 -1 15 -9 -20
-24 -15 -24 7 0 11 -4 20 -10 20 -5 0 -10 -4 -10 -10 0 -5 -4 -10 -9 -10 -4 0
-6 11 -3 25 3 21 1 24 -13 19 -11 -5 -16 -2 -15 7 1 8 2 21 1 29 -1 13 -2 13
-11 0 -8 -13 -11 -13 -19 -1 -5 7 -14 10 -21 6 -9 -5 -10 -2 -5 14 9 28 -8 27
-21 -1 -6 -13 -9 -17 -7 -10 5 23 -27 72 -46 72 -14 0 -17 6 -15 28 2 15 1 21
-2 15 -3 -7 -15 -13 -27 -13 -21 1 -21 1 -4 14 16 13 16 14 -4 19 -18 5 -20 9
-10 21 9 11 9 15 -1 19 -9 4 -8 6 3 6 9 1 22 8 29 16 7 9 29 15 52 15 31 0 41
4 45 20 3 11 10 20 17 20 14 0 20 87 6 95 -6 4 -8 11 -4 16 3 5 7 30 9 55 2
29 10 50 22 59 10 9 13 14 6 15 -7 0 -13 5 -13 11 0 6 7 9 15 5 8 -3 15 -1 15
4 0 6 -7 10 -15 10 -8 0 -15 5 -15 11 0 6 9 9 19 6 12 -3 22 1 25 10 3 8 10
12 15 9 12 -8 111 103 111 125 0 9 -6 22 -14 28 -11 10 -17 7 -30 -11 -12 -17
-19 -19 -28 -10 -9 9 -8 16 5 30 9 10 17 24 17 30 0 7 7 12 16 12 8 0 12 5 9
10 -3 6 -1 10 4 10 6 0 11 7 11 15 0 19 19 20 26 1 3 -8 13 -17 21 -20 14 -6
14 -4 2 10 -19 23 -22 54 -4 54 8 0 15 7 15 15 0 8 5 15 10 15 6 0 10 9 10 20
0 26 14 25 33 -2 l15 -23 -5 27 c-5 25 0 30 58 57 101 48 161 60 279 56 77 -2
123 -9 170 -25z m4356 -16 c50 -21 84 -52 77 -71 -3 -8 0 -46 7 -85 13 -69 13
-70 -16 -129 -32 -64 -48 -77 -33 -27 7 26 5 35 -12 51 -11 10 -22 32 -26 48
-3 16 -9 29 -14 29 -5 0 -9 5 -9 11 0 7 7 8 18 4 31 -12 51 -14 57 -4 4 5 -5
9 -19 9 -25 0 -30 8 -29 46 0 5 -9 10 -21 10 -12 -1 -20 4 -19 11 4 18 -35 36
-61 29 -39 -10 -76 54 -40 68 12 4 15 2 10 -9 -8 -21 7 -19 34 5 28 24 46 25
96 4z m-529 -109 c10 -14 35 -47 56 -73 40 -51 47 -75 20 -66 -17 5 -17 5 0
-6 9 -6 17 -22 17 -35 0 -32 3 -31 50 6 21 17 43 28 49 24 7 -3 10 -2 9 4 -2
6 16 20 40 31 23 10 42 15 42 10 0 -6 -6 -10 -12 -10 -9 0 -8 -3 2 -10 11 -7
9 -11 -13 -19 -16 -6 -32 -11 -36 -11 -4 0 -16 -9 -25 -19 -17 -18 -17 -20 0
-29 13 -7 15 -17 11 -41 -5 -23 -3 -31 8 -31 8 0 15 -4 15 -10 0 -19 -29 -10
-35 10 -4 11 -12 20 -18 19 -34 -4 -41 2 -19 17 12 8 22 20 22 25 0 12 -37 -6
-69 -35 l-24 -21 6 23 c8 32 -8 27 -40 -13 -15 -19 -34 -35 -40 -35 -7 0 -13
-11 -13 -25 0 -32 -56 -95 -84 -95 -19 0 -46 37 -46 63 0 5 -16 43 -35 84 -52
112 -53 118 -13 143 33 21 53 22 136 4 20 -4 32 -2 32 5 0 6 -6 8 -14 5 -8 -3
-23 3 -32 15 -10 11 -21 18 -26 15 -4 -3 -8 15 -8 40 0 34 4 46 15 46 8 0 15
5 15 10 0 20 40 9 57 -15z m-1450 -46 c11 -4 24 -13 28 -19 7 -11 -32 -100
-49 -112 -8 -5 -8 -10 0 -18 8 -8 16 -7 28 6 19 18 18 18 35 -14 12 -22 16
-23 80 -16 53 5 74 3 100 -10 28 -15 51 -49 51 -77 0 -15 -43 -28 -57 -17 -7
5 -18 8 -25 5 -7 -3 -4 -6 7 -6 18 -1 16 -4 -10 -26 -16 -13 -36 -24 -43 -25
-7 0 -10 -5 -6 -11 3 -6 15 -8 26 -6 14 4 23 -3 35 -29 9 -19 24 -34 32 -34 9
0 41 -25 71 -55 30 -30 59 -55 63 -55 11 0 62 -61 62 -74 0 -6 2 -13 5 -16 3
-3 11 -17 17 -32 18 -41 56 -62 81 -47 38 24 89 -18 59 -47 -13 -13 -7 -23 10
-17 11 4 14 3 9 -5 -4 -7 -18 -12 -32 -12 -13 0 -24 -4 -24 -10 0 -5 5 -10 10
-10 6 0 10 -5 10 -11 0 -5 -5 -7 -12 -3 -7 5 -8 3 -3 -6 6 -10 13 -8 27 10 31
39 68 53 132 51 50 -1 58 1 52 15 -5 13 -2 15 11 9 10 -4 34 -11 54 -15 20 -4
56 -23 80 -42 24 -19 49 -37 56 -39 21 -7 122 -94 121 -104 -1 -5 1 -28 5 -50
13 -77 8 -156 -11 -163 -7 -2 -10 -8 -6 -13 3 -5 -2 -19 -10 -31 -13 -18 -16
-19 -16 -5 0 9 -4 17 -10 17 -9 0 -14 -14 -11 -33 1 -4 -8 -3 -19 3 -11 6 -20
15 -20 20 0 6 -5 10 -11 10 -5 0 -7 -6 -3 -12 4 -7 -2 -4 -13 7 -11 11 -16 22
-10 24 31 12 49 41 43 67 -6 21 -10 24 -16 14 -4 -7 -6 -19 -3 -27 6 -16 2
-16 -34 -2 l-28 12 24 6 c14 4 26 12 29 19 5 15 -49 5 -59 -11 -4 -6 -13 -6
-25 1 -12 6 -27 6 -46 0 -16 -6 -32 -8 -35 -5 -3 4 -13 2 -23 -3 -18 -10 -70
7 -70 23 0 4 -5 7 -10 7 -6 0 -8 -14 -5 -32 3 -21 2 -28 -3 -20 -16 24 -74 30
-105 11 -16 -9 -24 -20 -18 -23 5 -4 8 -13 4 -21 -8 -22 37 -19 53 2 7 10 15
15 19 11 3 -3 -1 -12 -10 -19 -8 -8 -23 -20 -32 -28 -13 -13 -17 -13 -27 0
-15 19 -83 42 -97 33 -7 -4 -9 -3 -6 3 4 6 1 16 -6 22 -20 16 -44 -18 -49 -68
-3 -37 -1 -42 17 -39 11 1 31 -5 45 -15 19 -14 21 -17 7 -17 -10 0 -20 7 -23
15 -5 12 -10 13 -20 4 -8 -6 -11 -15 -8 -20 3 -5 0 -17 -5 -28 -8 -15 -5 -26
17 -54 25 -32 77 -72 85 -65 2 2 12 -5 21 -15 10 -10 23 -16 30 -14 6 2 17 -3
24 -12 12 -14 13 -14 8 3 -5 14 -2 17 11 12 11 -4 7 4 -11 21 -19 19 -30 24
-33 15 -3 -6 -9 -9 -15 -6 -5 3 -1 12 11 20 17 12 25 12 59 -1 31 -13 41 -23
46 -46 3 -16 11 -29 17 -29 26 0 145 63 166 88 12 14 25 23 28 20 4 -4 -3 -16
-14 -27 -12 -12 -21 -27 -21 -33 0 -7 -16 -24 -35 -37 -32 -22 -34 -25 -18
-37 17 -13 17 -13 -2 -15 -11 -1 -28 -1 -37 0 -10 1 -18 -3 -18 -9 0 -6 -10
-15 -23 -21 -19 -9 -34 -4 -95 34 -40 25 -94 50 -120 57 -43 11 -48 10 -64
-10 -23 -28 -23 -40 0 -40 11 0 27 -9 37 -20 14 -15 26 -18 60 -13 36 5 44 2
58 -18 12 -17 14 -26 5 -36 -11 -14 -29 -18 -27 -5 4 22 -6 19 -60 -17 l-59
-40 2 34 c1 29 -2 35 -18 35 -11 0 -27 7 -36 15 -15 14 -19 14 -31 -2 -12 -15
-12 -16 3 -10 14 5 17 -1 20 -36 2 -35 6 -41 22 -39 34 6 5 -19 -108 -93 -151
-98 -188 -129 -174 -143 9 -9 19 -6 42 12 17 12 83 58 146 101 63 43 141 98
173 123 64 48 116 62 141 36 9 -8 16 -24 16 -35 0 -11 8 -22 18 -25 9 -3 25
-10 36 -15 14 -8 23 -6 37 10 11 12 29 21 40 21 12 0 23 8 26 20 3 10 14 22
24 25 10 4 19 10 19 15 0 11 103 43 126 38 26 -4 30 -45 7 -71 -17 -20 -17
-20 0 -14 11 4 31 10 45 13 40 9 54 31 38 58 -8 11 -17 32 -21 45 -6 19 -4 23
8 18 12 -4 15 -1 11 11 -4 12 0 11 14 -5 17 -20 22 -21 32 -8 7 8 10 26 6 39
-4 15 -1 26 6 28 17 6 0 28 -23 28 -10 0 -19 5 -19 11 0 5 5 7 10 4 6 -4 16
-3 23 2 11 7 27 9 66 4 11 -1 11 -4 0 -18 -13 -15 -11 -16 16 -10 28 7 29 6
11 -8 -18 -14 -18 -15 10 -25 16 -6 37 -19 46 -27 10 -9 18 -11 18 -5 0 6 -6
14 -12 19 -9 5 -3 10 17 13 21 5 35 1 48 -11 17 -18 24 -50 10 -48 -5 1 -17 1
-28 0 -19 -2 -19 -3 3 -13 12 -6 22 -17 22 -23 0 -7 7 -18 15 -25 9 -7 20 -32
26 -56 6 -24 17 -44 25 -44 33 0 38 157 6 219 l-22 41 23 -4 c12 -3 24 -5 27
-5 3 -1 0 -5 -7 -9 -8 -5 -9 -12 -2 -22 8 -13 10 -13 19 0 8 13 10 13 10 -1 0
-9 7 -20 16 -23 10 -4 13 -13 9 -27 -5 -13 -3 -19 3 -15 5 3 13 -6 16 -20 5
-17 12 -24 21 -20 9 3 15 -1 15 -10 0 -11 -6 -13 -20 -9 -18 6 -20 2 -20 -34
0 -21 -3 -47 -7 -57 -4 -12 -2 -15 8 -12 10 3 13 17 11 47 -3 37 -1 42 14 39
11 -2 20 -12 22 -23 3 -11 10 -23 18 -28 14 -8 8 -37 -8 -37 -6 0 -5 6 2 15
10 13 9 15 -9 15 -23 0 -24 -1 -15 -24 3 -9 12 -16 20 -16 8 0 14 -7 14 -16 0
-21 39 -9 62 20 11 13 18 16 18 7 0 -7 13 1 29 18 16 17 35 31 43 31 25 1 -35
40 -78 51 -24 6 -44 13 -44 15 0 2 9 13 21 25 14 14 17 24 11 32 -6 7 -12 23
-14 37 -2 14 -9 24 -16 22 -18 -3 -15 15 4 22 11 4 19 -4 30 -29 7 -19 14 -39
14 -46 0 -7 9 -9 25 -5 14 3 36 9 49 12 18 4 27 0 36 -15 6 -12 15 -21 21 -21
6 0 7 5 3 11 -15 24 43 -17 86 -61 25 -25 72 -66 105 -90 33 -24 65 -50 70
-56 6 -7 28 -14 50 -16 28 -2 40 -8 40 -18 0 -15 -16 -17 -59 -6 -19 5 -28 1
-37 -15 -9 -17 -8 -24 2 -31 16 -10 84 -6 113 7 14 6 18 5 14 -6 -2 -7 5 -21
16 -31 12 -10 16 -17 9 -18 -7 0 -13 5 -13 10 0 6 -4 10 -9 10 -5 0 -7 -9 -4
-20 3 -12 0 -20 -8 -20 -7 0 -9 3 -6 6 13 14 -13 42 -33 37 -16 -4 -18 -8 -9
-19 14 -17 -2 -19 -19 -2 -9 10 -16 9 -28 -4 -18 -18 -11 -38 12 -38 8 0 14
-5 14 -11 0 -7 11 -4 26 6 15 9 23 12 20 6 -5 -7 1 -11 14 -11 30 0 22 -32 -9
-40 -14 -3 -27 -12 -29 -19 -3 -10 2 -12 22 -7 23 6 26 3 27 -21 2 -54 15 -93
31 -93 6 0 8 -3 5 -7 -4 -3 -16 2 -27 12 -16 15 -20 15 -25 3 -3 -8 -1 -27 5
-42 12 -34 -1 -56 -34 -56 -12 0 -16 -3 -10 -8 5 -4 10 -17 10 -29 0 -19 -5
-21 -31 -17 l-30 5 25 -16 25 -16 -25 4 c-14 3 -32 7 -40 9 -8 3 -11 3 -6 0 4
-2 2 -9 -5 -14 -11 -7 -9 -9 6 -7 35 2 59 -1 52 -7 -4 -4 7 -22 24 -42 l30
-34 -20 -20 c-12 -10 -21 -22 -21 -26 0 -4 -4 -13 -9 -21 -7 -10 -13 -11 -30
-1 -19 10 -28 7 -67 -25 -27 -23 -51 -35 -60 -31 -9 4 -29 -5 -46 -19 -17 -14
-44 -32 -62 -41 -17 -8 -44 -22 -60 -31 -16 -8 -40 -15 -52 -15 -13 0 -24 -6
-24 -14 0 -7 -11 -21 -25 -32 -14 -11 -25 -29 -25 -40 0 -14 -14 -28 -42 -44
-40 -22 -72 -75 -61 -103 5 -16 114 -10 123 6 7 10 12 10 23 1 15 -13 28 -4
40 28 4 12 6 11 6 -2 1 -14 10 -18 37 -18 33 0 36 2 32 25 -5 24 1 29 29 26 7
-1 21 7 33 19 11 11 17 20 14 20 -4 0 0 7 7 17 11 13 11 17 2 20 -22 8 5 45
30 42 12 -2 33 3 46 10 18 10 30 10 47 2 19 -8 24 -8 24 4 0 8 5 15 12 15 6 0
8 3 5 6 -3 4 -2 15 4 25 14 26 48 24 59 -3 8 -22 9 -21 11 7 0 17 1 38 0 47
-1 9 7 22 18 27 16 9 24 7 39 -9 17 -18 20 -19 25 -6 4 10 1 16 -8 16 -17 0
-19 11 -6 26 6 5 11 35 13 67 3 63 13 74 23 27 4 -17 16 -35 28 -42 12 -6 25
-16 29 -22 13 -19 9 -54 -7 -60 -17 -6 -20 -47 -4 -63 8 -8 3 -27 -18 -69 -30
-61 -46 -73 -51 -38 -2 16 -8 20 -23 17 -21 -6 -26 -33 -6 -34 10 0 10 -2 0
-6 -16 -6 -17 -39 -2 -49 6 -3 18 -22 26 -41 11 -28 12 -42 2 -71 -21 -68 -68
-158 -99 -187 -50 -48 -187 -125 -229 -128 -15 -1 -30 -11 -35 -23 -11 -24
-60 -48 -81 -41 -7 3 -41 -7 -75 -24 -34 -16 -65 -27 -70 -24 -5 3 -18 0 -29
-6 -14 -10 -33 -10 -78 -2 -38 7 -60 7 -64 1 -4 -6 -9 6 -13 25 -8 44 -24 57
-53 46 -28 -10 -29 -23 -3 -49 11 -11 20 -22 20 -24 0 -3 -25 -13 -55 -22 -56
-18 -90 -51 -38 -38 23 6 25 4 21 -14 -3 -12 -1 -23 6 -26 6 -2 1 -5 -11 -5
-13 -1 -23 4 -23 11 0 9 -3 9 -11 1 -15 -15 -62 5 -55 24 5 13 -5 17 -31 14
-25 -3 -12 38 20 66 19 15 47 45 63 65 24 31 35 38 65 38 23 0 42 7 54 20 10
11 26 20 37 20 10 0 18 3 17 8 -2 14 13 52 21 52 4 0 11 12 14 26 7 25 28 54
40 54 3 0 7 -10 7 -22 1 -17 2 -19 6 -5 2 9 14 17 26 18 15 1 9 5 -18 14 -22
8 -34 14 -26 14 9 1 11 7 6 19 -4 9 -7 25 -7 35 1 32 -14 18 -41 -39 -42 -85
-128 -170 -213 -210 -39 -19 -77 -34 -85 -34 -8 -1 1 -9 19 -18 35 -19 33 -32
-3 -32 -25 0 -48 -22 -52 -52 -8 -48 -21 -58 -81 -57 -67 1 -94 7 -86 20 9 14
81 49 102 49 11 0 32 16 46 35 l27 35 -43 -22 c-36 -19 -58 -23 -133 -23 -49
1 -99 4 -110 7 -57 17 -65 21 -65 35 0 8 5 11 10 8 20 -12 9 12 -15 35 -27 25
-32 21 -14 -12 10 -18 9 -20 -5 -15 -9 4 -16 2 -16 -3 0 -4 -18 -1 -40 7 -22
9 -40 20 -40 25 0 4 -7 8 -15 8 -8 0 -15 2 -15 4 0 2 -3 13 -7 23 -6 17 -6 17
14 0 18 -16 22 -16 33 -2 12 14 7 20 -14 16 -5 -1 -6 5 -3 14 8 19 -19 20 -39
1 -8 -8 -35 -18 -60 -22 -37 -5 -48 -3 -62 12 -26 29 -27 61 -1 74 27 15 95 7
117 -13 11 -10 27 -13 47 -10 30 6 43 16 139 108 73 69 82 75 112 77 14 2 29
8 31 16 4 9 9 9 18 2 9 -8 14 -1 19 30 6 36 9 40 27 35 14 -5 28 0 43 15 13
11 27 20 32 19 23 -4 34 3 34 20 0 11 5 21 11 23 7 2 9 13 5 25 -6 18 -13 21
-39 16 -30 -5 -33 -2 -49 40 -15 41 -15 47 -1 67 9 13 16 36 15 53 -1 29 0 29
38 24 34 -4 39 -2 43 19 4 24 -6 33 -18 14 -8 -13 -52 -13 -60 0 -3 6 1 13 9
16 23 9 20 24 -4 24 -18 0 -19 3 -10 20 6 12 8 30 5 41 -6 19 -8 19 -32 4 -22
-15 -26 -15 -49 0 -13 8 -24 23 -24 33 0 35 -16 43 -88 45 -47 1 -73 6 -77 14
-7 21 -35 15 -35 -7 0 -11 1 -21 3 -23 4 -6 -31 -37 -42 -37 -21 0 -22 22 -2
56 12 20 19 39 16 44 -6 10 -45 1 -45 -11 0 -18 -19 -8 -26 13 -3 12 -13 29
-21 37 -9 8 -13 26 -11 43 5 32 1 34 -26 13 -49 -37 -80 0 -70 79 5 34 3 44
-10 49 -11 5 -20 -1 -27 -17 -9 -19 -16 -22 -38 -17 -36 10 -37 30 -3 70 22
26 36 34 67 36 22 2 48 6 58 10 12 5 23 1 33 -11 13 -18 14 -17 8 7 -5 22 0
29 28 46 24 14 34 28 36 48 4 50 37 69 82 45 14 -8 21 -5 34 15 9 14 31 32 48
41 31 16 32 16 52 -9 20 -24 22 -25 50 -10 38 20 106 12 143 -17 25 -19 28
-20 31 -5 3 15 5 15 18 -2 7 -10 14 -13 14 -7 0 6 -9 23 -20 37 -11 14 -20 30
-20 36 0 14 -17 14 -22 0 -4 -13 -150 -27 -177 -17 -26 9 -27 30 -1 53 25 22
26 38 3 26 -10 -5 -26 -12 -35 -15 -10 -3 -18 -14 -18 -24 0 -26 -25 -45 -58
-44 -15 0 -42 1 -61 2 -21 1 -41 -6 -55 -18 -11 -11 -37 -22 -56 -24 -19 -3
-44 -8 -55 -13 -11 -4 -2 8 19 27 25 22 47 33 58 30 11 -2 20 2 24 12 9 23 -3
33 -19 16 -9 -10 -9 -11 1 -6 6 4 12 2 12 -3 0 -6 -10 -10 -22 -9 -13 1 -45
-11 -73 -27 -27 -17 -50 -28 -50 -26 0 3 -12 -3 -27 -13 -17 -11 -37 -16 -51
-12 -22 5 -45 -10 -127 -80 -14 -12 -59 -50 -100 -85 -41 -35 -101 -87 -132
-116 -54 -50 -78 -64 -78 -44 0 5 28 33 63 63 34 29 67 58 73 63 63 56 96 83
201 162 137 103 163 119 163 103 0 -6 4 -8 10 -5 6 3 10 14 10 24 0 9 21 32
46 50 25 18 44 34 41 37 -3 3 -60 -33 -128 -80 -67 -47 -126 -86 -130 -86 -5
0 -5 7 -2 17 4 11 3 14 -5 9 -7 -4 -21 -9 -33 -11 -27 -5 -102 -72 -118 -104
-8 -16 -15 -21 -19 -14 -5 7 -30 -7 -70 -39 -48 -37 -61 -53 -53 -62 17 -20
-23 -50 -70 -52 -32 -2 -39 1 -35 13 3 8 6 19 6 24 0 5 6 9 13 9 22 0 60 47
53 65 -8 21 -28 15 -41 -13 -5 -12 -15 -22 -22 -22 -7 0 -10 -6 -7 -14 5 -14
-22 -30 -36 -21 -12 8 -99 -85 -94 -100 3 -7 1 -22 -5 -33 -8 -16 -7 -21 4
-26 9 -3 15 0 15 9 0 8 4 15 9 15 5 0 16 3 24 6 10 3 18 -2 22 -15 9 -30 41
-35 79 -13 25 15 36 17 48 8 13 -10 10 -16 -22 -46 -21 -20 -43 -34 -49 -32
-17 6 -13 -5 4 -12 8 -3 21 2 29 10 14 13 17 13 34 -4 20 -20 18 -42 -3 -42
-8 0 -17 -4 -20 -10 -4 -7 3 -7 19 0 21 8 26 6 26 -6 0 -8 5 -12 10 -9 6 3 10
1 10 -4 0 -6 -6 -11 -14 -11 -8 0 -17 -4 -20 -9 -3 -5 0 -9 7 -8 6 0 21 -1 31
-1 20 -2 20 -2 0 -16 -14 -11 -21 -11 -26 -3 -5 8 -8 4 -8 -9 0 -15 -15 -28
-57 -49 -32 -15 -67 -34 -78 -42 -19 -13 -19 -14 7 -8 19 5 26 3 23 -7 -9 -39
-19 -58 -29 -58 -6 0 3 -7 19 -16 17 -9 57 -18 90 -21 33 -2 64 -9 70 -14 5
-6 5 -9 -3 -9 -7 0 -12 -9 -12 -20 0 -17 7 -20 39 -20 44 0 64 -18 59 -52 -2
-19 -9 -23 -38 -24 -19 0 -41 3 -47 9 -19 14 -16 -8 2 -23 9 -8 37 -12 66 -11
32 1 48 -2 44 -9 -3 -5 -13 -10 -21 -10 -17 0 -18 -12 -1 -29 7 -8 7 -11 1 -8
-7 4 -17 0 -24 -8 -11 -13 -6 -14 34 -12 45 3 69 -14 44 -29 -7 -5 -5 -12 7
-21 18 -12 18 -13 -2 -13 -14 0 -23 8 -27 26 -5 18 -12 24 -22 20 -9 -3 -20
-6 -26 -6 -6 0 -8 -7 -4 -15 7 -18 -10 -20 -18 -2 -4 6 -4 -5 -2 -25 4 -34 2
-38 -18 -38 -12 0 -26 -4 -31 -8 -18 -15 -90 -32 -113 -26 -12 4 -22 2 -22 -4
0 -14 -109 11 -143 32 -15 10 -27 22 -27 26 0 7 -56 23 -85 24 -21 2 -120 94
-166 156 l-26 34 -64 -54 c-35 -30 -53 -42 -40 -27 14 15 20 27 14 27 -12 0
-55 -45 -48 -51 2 -3 -14 -23 -37 -45 -24 -21 -34 -29 -24 -16 11 12 15 22 10
22 -14 0 -96 -85 -89 -92 4 -3 1 -9 -6 -14 -8 -4 -10 -3 -5 4 18 29 -14 7 -69
-48 -33 -33 -62 -55 -64 -49 -4 14 30 50 184 188 171 153 249 217 289 236 18
9 57 41 87 72 57 59 51 62 -18 6 -23 -18 -49 -33 -58 -33 -16 0 -16 2 0 27 20
30 23 32 -105 -75 -25 -20 -39 -30 -33 -21 11 13 6 19 -35 37 -56 27 -80 46
-112 92 -13 19 -27 37 -30 40 -15 11 -40 75 -40 99 0 21 2 23 11 11 9 -13 10
-13 6 0 -2 8 -9 15 -15 15 -7 0 -12 5 -13 10 0 6 -7 14 -15 18 -8 4 -14 19
-14 32 0 13 -5 27 -11 31 -6 3 -8 16 -5 28 3 11 1 38 -4 59 -6 30 -5 36 5 27
9 -8 11 -5 7 15 -3 16 -11 25 -23 25 -11 0 -19 5 -19 12 0 6 -9 31 -21 55
l-21 43 -18 -22 c-17 -21 -19 -21 -43 -5 -25 16 -46 84 -32 107 11 17 35 12
28 -7 -4 -11 -3 -14 5 -9 7 4 18 -6 27 -24 8 -16 18 -30 20 -30 3 0 -3 17 -14
37 -10 21 -22 53 -26 71 -3 18 -14 46 -22 63 -10 20 -13 41 -8 62 4 18 9 47
11 66 2 18 10 41 19 51 8 9 15 23 15 30 0 14 44 78 68 97 13 11 13 15 1 29
-13 16 -12 16 9 5 12 -7 20 -16 17 -21 -10 -17 28 2 67 32 21 16 53 32 73 35
19 3 35 10 35 15 0 5 5 6 10 3 19 -12 10 7 -12 25 -17 13 -27 15 -36 8 -19
-16 -28 0 -13 23 11 19 10 23 -11 38 -12 9 -36 18 -52 21 -16 3 -32 11 -34 19
-3 10 0 12 11 8 25 -10 29 8 7 34 -16 20 -19 21 -20 7 0 -19 -20 -26 -20 -8 0
6 -6 10 -14 10 -7 0 -16 8 -19 18 -2 9 -8 26 -12 37 -5 16 -5 17 4 5 9 -13 12
-13 27 2 19 19 12 53 -9 45 -8 -3 -20 -1 -28 4 -10 6 -10 9 -1 9 6 0 15 -1 18
-2 3 -2 10 5 15 14 7 13 5 25 -6 42 -9 14 -14 30 -10 36 3 5 1 10 -6 10 -8 0
-4 9 8 23 16 17 18 28 12 50 -6 22 2 45 43 125 28 53 59 113 69 132 23 46 143
158 237 221 18 12 20 18 10 23 -7 3 -2 4 12 2 23 -5 70 22 70 40 0 11 34 33
52 34 11 0 15 5 12 15 -4 8 -1 15 5 15 6 0 11 7 11 15 0 9 6 15 13 14 6 -1 19
0 27 4 8 3 35 8 60 12 51 6 80 21 65 33 -5 4 -10 17 -11 30 -1 20 3 22 26 17
40 -9 56 14 64 87 3 35 12 68 19 73 8 6 12 16 9 24 -4 13 8 11 65 -10z m459
-194 c27 -19 57 -35 66 -35 24 0 32 -18 17 -37 -30 -35 -149 -69 -149 -42 0 6
-10 18 -21 28 -21 17 -21 17 -3 69 10 29 24 52 30 52 6 0 33 -16 60 -35z
m1589 -22 c-3 -15 -14 -38 -24 -52 -10 -16 -18 -48 -19 -81 -1 -30 -7 -59 -14
-65 -8 -7 -9 -6 -4 3 8 13 -3 16 -28 6 -8 -3 -12 -12 -10 -19 3 -7 -5 -20 -18
-29 -19 -14 -21 -18 -8 -26 8 -5 11 -10 6 -10 -6 0 -5 -5 2 -12 9 -9 16 -7 32
7 16 15 20 15 20 3 0 -9 -16 -20 -38 -26 -37 -11 -108 -72 -83 -72 6 0 23 12
36 26 18 19 25 22 25 12 0 -9 -7 -21 -15 -28 -8 -7 -19 -27 -24 -44 -5 -17
-10 -23 -10 -13 -1 19 -12 22 -28 6 -7 -7 -12 -2 -15 20 -3 19 0 32 9 35 7 3
13 13 13 21 0 10 5 13 12 9 8 -5 9 -2 5 11 -4 9 -2 24 4 31 6 8 8 14 5 14 -4
0 -1 7 8 15 8 9 13 23 10 33 -5 13 -4 14 4 4 7 -11 11 -10 17 5 4 10 9 23 10
28 1 6 10 46 20 90 24 116 23 114 45 108 10 -3 27 0 37 6 25 15 26 14 18 -16z
m-4514 -57 c61 -22 106 -63 123 -113 9 -25 14 -49 11 -52 -2 -4 0 -13 5 -21 5
-9 4 -20 -3 -29 -9 -12 -9 -13 1 -7 7 4 12 2 12 -4 0 -7 -9 -14 -20 -17 -11
-3 -20 -11 -20 -18 0 -20 -57 -63 -98 -75 -21 -5 -61 -11 -90 -13 -51 -3 -59
3 -53 36 1 5 -4 7 -11 4 -7 -2 -12 -9 -11 -15 2 -6 -4 -9 -12 -6 -8 4 -15 10
-15 14 0 5 -8 11 -17 15 -28 9 -80 86 -86 125 -9 67 42 134 128 169 58 23 105
25 156 7z m4127 -18 c-5 -18 -10 -39 -11 -45 0 -7 -6 -13 -12 -13 -8 0 -10
-10 -8 -24 3 -15 10 -23 18 -20 7 3 15 -6 20 -23 4 -18 2 -29 -5 -31 -9 -3 -9
-6 -2 -11 6 -4 9 -17 5 -29 -4 -17 -10 -21 -26 -16 -18 6 -19 3 -14 -25 4 -18
3 -30 -2 -26 -5 3 -12 -1 -14 -7 -4 -10 -7 -10 -15 0 -14 20 -40 3 -47 -30 -6
-25 -11 -29 -30 -26 -26 5 -27 -7 -2 -42 10 -14 17 -18 17 -10 0 10 3 11 11 3
6 -6 8 -16 5 -21 -7 -12 -46 -4 -46 9 0 5 -7 6 -15 3 -8 -4 -15 -1 -15 7 0 7
-3 9 -6 6 -4 -4 -1 -13 6 -22 10 -12 10 -15 -3 -15 -27 0 -30 -20 -6 -41 12
-10 20 -21 17 -24 -6 -6 -48 33 -48 45 0 5 5 12 10 15 16 10 12 28 -5 21 -13
-5 -14 -2 -4 16 10 18 9 20 -5 15 -19 -8 -20 2 -2 26 16 21 26 22 26 2 0 -8 6
-12 14 -9 10 4 12 13 6 32 -6 23 0 35 38 80 47 56 97 148 93 171 -1 7 2 10 9
6 6 -4 19 12 31 39 23 54 32 60 17 14z m455 -612 c89 -40 180 -79 202 -85 131
-41 404 -164 583 -264 42 -24 105 -54 139 -67 37 -15 57 -27 50 -32 -6 -4 -9
-8 -7 -10 3 -2 17 -14 32 -27 15 -13 38 -25 50 -26 13 -1 22 -7 21 -13 -3 -14
75 -33 80 -19 2 7 6 1 9 -11 4 -12 3 -22 -2 -22 -4 0 -19 -17 -32 -37 -27 -40
-146 -163 -188 -193 -14 -10 -36 -40 -50 -67 -13 -26 -30 -52 -37 -56 -8 -5
-11 -12 -8 -17 3 -5 1 -11 -5 -15 -6 -4 -8 -11 -4 -16 3 -6 -2 -19 -11 -29 -9
-10 -22 -41 -30 -70 -7 -28 -19 -58 -25 -66 -7 -8 -10 -14 -6 -14 3 0 -4 -18
-15 -40 -12 -22 -19 -47 -15 -55 3 -8 2 -15 -3 -15 -4 0 -22 -32 -40 -72 -30
-68 -35 -108 -10 -92 8 4 9 3 5 -5 -4 -6 -11 -9 -16 -6 -5 3 -14 -4 -20 -15
-7 -13 -7 -20 0 -20 5 0 10 4 10 9 0 5 9 7 20 4 16 -4 20 0 20 20 0 14 7 32
15 41 8 8 15 21 15 29 0 23 32 111 47 128 8 9 13 20 12 25 -5 22 47 112 73
127 15 9 28 12 28 6 0 -6 5 -7 10 -4 14 9 13 26 -2 22 -6 -1 -14 7 -16 18 -3
16 -1 18 9 8 16 -16 43 -17 33 -2 -4 8 0 9 15 4 12 -3 21 -2 21 4 0 11 74 -12
95 -29 7 -5 16 -6 20 -2 5 4 5 2 1 -5 -3 -6 1 -13 11 -16 15 -4 14 -5 -3 -6
-35 -2 -53 -23 -43 -50 6 -15 14 -21 24 -17 36 13 7 -75 -46 -143 -11 -13 -19
-29 -19 -36 0 -6 -8 -20 -19 -29 -10 -9 -27 -38 -36 -64 -10 -26 -25 -56 -34
-67 -10 -11 -27 -42 -40 -70 -13 -27 -40 -86 -61 -130 -22 -44 -55 -114 -75
-155 -42 -88 -59 -118 -74 -133 -6 -6 -11 -19 -11 -28 0 -9 -7 -19 -15 -23 -8
-3 -15 -14 -15 -25 0 -10 -18 -42 -40 -70 -22 -28 -40 -57 -40 -65 0 -21 -54
-56 -87 -56 -33 0 -42 16 -73 131 -12 40 -27 97 -34 124 -26 95 -40 170 -37
199 3 34 -20 117 -31 110 -7 -5 -10 6 -22 71 -20 113 -48 230 -62 262 -9 21
-18 54 -19 73 -3 33 -48 248 -59 280 -3 8 -7 29 -10 45 -3 17 -8 47 -12 68 -4
25 -3 37 5 37 10 0 13 -7 10 -27 0 -3 6 -10 15 -15 9 -5 16 -18 16 -28 0 -10
5 -22 10 -25 6 -3 10 -19 10 -36 0 -16 4 -29 8 -29 4 0 9 -14 10 -32 2 -18 9
-39 17 -48 8 -9 15 -20 15 -25 0 -4 12 -19 26 -32 14 -13 24 -27 21 -30 -3 -3
2 -21 13 -40 13 -25 16 -42 10 -64 -5 -16 -6 -29 -2 -29 16 0 33 -42 22 -54
-5 -8 -12 -42 -14 -77 -2 -35 -1 -54 1 -41 2 12 9 20 14 17 5 -4 9 1 9 9 0 9
5 16 11 16 6 0 8 -7 5 -16 -5 -13 -1 -15 19 -10 19 5 25 2 26 -11 1 -10 3 -25
4 -33 1 -8 3 -20 4 -26 0 -7 11 -14 22 -17 14 -4 20 -11 16 -20 -6 -16 36 -33
53 -22 17 10 7 55 -13 61 -13 4 -17 12 -14 25 3 10 1 19 -4 19 -5 0 -9 14 -9
31 0 21 -6 32 -18 36 -13 3 -18 15 -19 45 -1 22 -9 48 -18 57 -8 10 -15 29
-15 42 0 13 -9 30 -20 37 -11 6 -17 18 -14 26 3 8 0 17 -5 21 -15 9 -42 75
-35 86 3 5 -4 18 -14 30 -11 11 -22 35 -25 52 -9 55 -32 126 -45 139 -7 7 -12
18 -12 26 0 8 -9 34 -20 58 -11 24 -29 64 -40 88 -11 24 -20 58 -20 76 0 23
-5 33 -20 37 -11 3 -20 12 -20 19 0 8 -9 33 -19 57 -11 23 -22 53 -26 67 -8
27 -51 125 -92 205 -14 28 -27 61 -30 75 -2 13 -9 27 -14 31 -13 8 -91 160
-85 166 2 3 12 1 21 -4 18 -10 75 -5 75 7 0 15 -29 31 -64 37 -24 4 -36 2 -36
-6 0 -6 -4 -11 -8 -11 -7 0 -8 25 -3 49 2 9 65 -15 214 -83z m-3393 -996 c-18
-11 -22 -42 -7 -52 9 -6 9 -8 0 -8 -6 0 -18 -7 -26 -15 -8 -8 -29 -16 -46 -17
-36 -3 -38 -8 -11 -31 20 -17 22 -17 24 5 0 7 18 14 40 16 30 2 37 -1 33 -12
-3 -8 2 -16 12 -19 16 -4 77 -115 68 -123 -2 -2 -37 -13 -78 -24 -41 -11 -173
-47 -293 -80 -150 -41 -221 -57 -226 -50 -4 7 -18 8 -35 4 -19 -5 -26 -3 -21
4 3 6 1 14 -6 18 -7 4 -10 4 -6 -1 4 -4 3 -14 -2 -21 -6 -6 -9 -18 -8 -25 4
-17 -59 -36 -73 -22 -7 7 -5 16 6 27 15 15 15 16 -9 16 -14 0 -26 5 -26 10 0
6 9 10 19 10 11 0 27 3 36 6 12 5 16 2 13 -9 -2 -9 2 -16 7 -16 6 -1 10 7 10
17 0 13 -7 16 -28 15 -22 -1 -27 2 -23 12 6 17 -9 20 -19 5 -4 -6 -11 -8 -16
-4 -5 3 -17 0 -26 -8 -13 -10 -17 -10 -20 0 -3 6 -12 12 -21 13 -11 0 -12 2
-4 6 6 2 12 14 12 26 0 18 2 19 11 7 9 -13 10 -13 6 0 -4 16 -48 16 -77 0 -15
-8 -74 -19 -137 -25 -17 -2 -47 -11 -67 -20 -19 -9 -39 -14 -44 -11 -6 3 -29
-1 -52 -9 -23 -8 -47 -12 -52 -9 -6 4 -14 0 -19 -7 -6 -10 -9 -11 -9 -1 0 14
-31 16 -45 3 -16 -14 -87 -35 -130 -38 -22 -1 -69 -12 -104 -24 -53 -18 -68
-20 -84 -9 -16 9 -21 9 -28 -1 -6 -10 -10 -10 -23 0 -13 11 -17 10 -23 -5 -5
-11 -19 -20 -33 -22 -25 -2 -25 -2 6 27 22 21 38 28 53 24 16 -4 23 1 31 21 5
14 16 26 24 26 8 0 21 3 29 6 11 4 17 -2 19 -18 4 -23 5 -23 16 5 13 32 15 32
36 11 19 -18 36 -10 36 17 0 21 25 26 33 7 4 -9 6 -7 6 3 1 12 24 22 84 38 45
12 102 28 127 36 25 7 59 16 75 20 17 3 38 8 47 11 12 4 15 0 11 -15 -7 -29
25 -40 43 -16 8 11 12 26 9 34 -3 12 9 20 49 32 l54 16 -2 -30 c0 -16 5 -32
12 -34 8 -3 10 1 6 11 -8 20 13 46 36 46 10 0 21 -8 23 -17 4 -14 5 -13 6 4 0
12 -4 23 -10 25 -22 7 111 45 451 129 91 23 208 53 260 68 91 26 120 30 90 11z
m2013 -480 c11 -15 23 -19 64 -17 38 1 56 -3 72 -17 24 -22 26 -35 10 -70 -14
-30 -80 -46 -106 -24 -13 10 -17 10 -20 1 -7 -18 -53 -16 -75 4 -25 23 -22 48
8 72 18 14 22 21 11 21 -20 0 -31 31 -15 42 21 13 36 9 51 -12z m-479 -15 c8
-8 24 -15 35 -15 29 0 45 -34 32 -71 -9 -27 -8 -31 13 -39 44 -16 60 -110 18
-110 -29 1 -50 24 -57 63 -7 37 -8 38 -23 16 -9 -12 -11 -24 -5 -28 14 -9 24
-41 30 -92 3 -37 1 -48 -13 -53 -42 -16 -97 103 -60 133 9 7 16 18 16 24 0 6
-3 7 -7 4 -11 -12 -33 14 -33 40 0 13 9 41 20 62 17 34 18 41 5 51 -15 12 -12
30 5 30 5 0 15 -7 24 -15z m644 -227 c7 -7 12 -20 12 -30 0 -14 7 -18 32 -16
27 3 34 -1 42 -26 9 -24 7 -31 -13 -47 -24 -20 -57 -26 -46 -9 3 6 1 10 -5 10
-6 0 -8 5 -5 10 3 6 1 10 -4 10 -6 0 -11 -6 -11 -12 0 -16 -64 -68 -82 -68 -7
0 -19 4 -26 8 -16 11 -25 52 -10 49 6 -1 20 21 30 48 11 28 24 52 29 53 5 2 9
10 9 18 0 17 31 19 48 2z m-501 -88 c-4 -17 -1 -19 18 -14 29 7 82 -20 90 -46
5 -14 0 -27 -17 -41 -13 -11 -17 -18 -10 -14 18 9 15 -32 -4 -43 -21 -12 -64
-3 -64 13 0 8 9 17 21 20 19 6 18 9 -15 31 -20 14 -36 31 -36 38 0 8 -7 16
-15 20 -15 5 -21 37 -8 49 3 4 15 7 26 7 14 0 18 -5 14 -20z m69 -195 c-4 -12
2 -14 32 -11 20 3 38 10 40 16 6 17 41 11 52 -9 15 -29 13 -39 -15 -66 -30
-31 -43 -31 -54 -3 -7 21 -8 20 -27 -10 -21 -36 -61 -44 -70 -14 -3 9 -10 25
-15 35 -11 20 12 52 27 39 5 -4 6 -3 2 2 -9 10 9 36 24 36 6 0 8 -7 4 -15z"/>
<path d="M4750 3134 l-35 -13 43 0 c36 -1 42 -4 42 -22 0 -11 5 -17 10 -14 12
7 9 -79 -3 -91 -12 -13 -8 -32 10 -38 9 -4 20 -1 24 6 6 10 14 7 31 -11 l22
-24 -22 5 c-25 7 -28 2 -9 -16 11 -11 17 -11 33 1 19 14 19 14 -1 30 -20 15
-20 15 3 8 17 -5 22 -2 22 12 0 11 5 24 12 31 10 10 8 16 -6 30 -18 16 -18 16
-13 -6 4 -15 1 -22 -6 -19 -7 2 -11 17 -10 33 2 27 1 28 -12 10 -8 -11 -18
-16 -22 -13 -4 4 -1 13 5 19 19 19 14 30 -8 18 -17 -9 -22 -7 -30 15 -6 15
-10 35 -10 46 0 22 -18 23 -70 3z"/>
<path d="M5933 2179 c1 -18 -4 -34 -10 -36 -7 -3 -13 2 -13 11 0 9 -5 16 -11
16 -6 0 -9 -6 -6 -14 7 -17 -18 -40 -33 -31 -5 3 -10 2 -10 -4 0 -5 -12 -12
-27 -14 -18 -3 -15 -4 7 -2 19 1 42 5 52 9 11 5 18 1 23 -13 8 -26 -17 -64
-47 -68 -27 -4 -27 -4 -31 -34 -2 -13 -13 -28 -23 -34 -11 -6 -18 -18 -16 -27
2 -12 -3 -18 -13 -18 -10 0 -15 -5 -12 -13 3 -8 1 -20 -3 -27 -7 -11 -11 -11
-24 0 -9 7 -19 10 -23 6 -3 -3 -1 -6 5 -6 7 0 12 -7 12 -16 0 -8 4 -13 9 -10
5 3 17 -6 26 -21 13 -19 14 -28 6 -31 -6 -2 -8 -9 -4 -15 4 -7 0 -8 -11 -4
-10 4 -20 7 -22 7 -3 0 -2 5 1 10 3 6 2 10 -3 10 -5 0 -12 10 -15 22 -4 12 -9
19 -12 16 -8 -8 24 -78 36 -78 5 0 9 -5 9 -11 0 -8 -13 -10 -37 -6 -26 5 -39
2 -47 -9 -10 -13 -15 -12 -41 11 -30 25 -30 25 -46 6 -16 -19 -16 -19 -48 0
l-32 20 17 -31 c10 -16 23 -30 29 -30 14 0 55 -42 55 -57 0 -5 9 -18 20 -28
15 -14 29 -16 60 -11 32 5 51 1 90 -19 27 -14 54 -35 61 -46 9 -17 13 -19 20
-8 7 12 9 11 10 -1 1 -8 1 -18 0 -22 -2 -14 43 -8 63 7 11 8 31 15 45 15 26 1
26 1 -9 29 -19 16 -38 27 -42 25 -5 -3 -8 0 -8 5 0 6 -5 11 -11 11 -5 0 -7 -5
-3 -12 5 -7 3 -8 -5 -4 -7 5 -10 14 -7 22 3 8 0 11 -10 7 -10 -3 -13 0 -9 11
17 53 14 52 41 23 14 -15 29 -27 35 -27 6 0 8 -4 5 -8 -9 -15 13 -37 39 -37
31 -1 31 12 4 67 -15 30 -45 60 -100 102 -44 32 -79 62 -79 66 0 14 25 28 55
32 24 2 30 9 36 36 9 44 17 51 14 11 -3 -46 46 -129 77 -129 10 0 10 2 -1 9
-11 7 -11 9 0 14 11 4 11 6 -1 6 -8 1 -21 10 -28 21 -14 22 -3 27 17 8 11 -11
13 -10 8 4 -3 10 0 19 10 22 10 4 13 14 9 30 -3 14 -2 28 4 31 5 3 10 12 10
18 0 8 -3 8 -9 -1 -6 -10 -10 -8 -14 8 -4 17 -2 20 10 16 13 -5 14 -4 3 9 -10
13 -9 15 7 15 10 0 25 -6 32 -12 11 -11 12 -10 6 1 -4 7 -3 16 4 20 8 5 4 15
-12 32 -31 31 -37 51 -19 65 33 24 -11 98 -65 109 -30 6 -31 5 -30 -26z"/>
<path d="M5540 2181 c0 -14 -113 -94 -154 -108 -22 -8 -44 -17 -50 -20 -14 -9
-116 -12 -116 -3 0 4 7 11 16 14 8 3 13 10 10 15 -3 5 8 14 24 21 17 7 30 17
30 22 0 5 -4 6 -10 3 -5 -3 -10 -1 -10 4 0 6 -4 11 -9 11 -5 0 -8 -8 -7 -17 1
-12 -7 -19 -24 -21 -18 -2 -21 0 -11 6 8 6 -15 10 -69 11 -46 1 -88 5 -94 8
-6 4 -5 -1 3 -10 8 -10 28 -17 50 -17 20 0 45 -7 55 -15 17 -13 18 -15 3 -15
-9 0 -17 -4 -17 -10 0 -5 -18 -13 -40 -16 -22 -4 -40 -11 -40 -16 0 -6 11 -8
25 -6 32 7 49 -14 43 -51 -4 -27 -3 -28 19 -20 24 9 68 -10 86 -38 4 -7 24
-15 44 -19 41 -8 103 -41 103 -55 0 -8 71 -49 85 -49 13 0 -26 44 -68 80 -38
31 -43 39 -35 56 19 34 72 84 90 84 10 0 18 5 18 10 0 6 6 10 14 10 15 0 26
20 27 53 0 13 3 16 6 9 4 -10 9 -7 17 9 13 26 9 89 -5 89 -5 0 -9 -4 -9 -9z"/>
<path d="M4911 2012 c-1 -16 -46 -62 -60 -62 -6 0 -8 7 -5 15 5 12 -2 15 -29
15 -37 0 -47 -12 -47 -56 0 -21 3 -23 30 -18 39 8 59 -9 66 -57 4 -23 12 -39
20 -39 8 0 14 -4 14 -9 0 -15 32 -6 45 12 14 20 85 23 103 5 7 -7 12 -8 12 -3
0 4 8 1 18 -7 24 -22 100 -39 105 -24 3 8 9 7 21 -3 9 -8 15 -19 13 -25 -6
-15 21 -66 34 -66 11 0 3 37 -13 57 -7 9 -5 21 6 38 9 13 16 31 16 39 0 18
-37 31 -53 18 -34 -26 -97 -19 -122 15 -8 11 -14 13 -19 5 -12 -20 -49 22 -41
47 7 24 43 37 58 22 6 -6 18 -11 26 -11 11 0 9 5 -7 16 -12 8 -22 22 -22 30 0
17 -80 20 -97 3 -13 -13 -47 6 -62 36 -5 11 -10 14 -10 7z"/>
</g>
</svg>
