<?xml version="1.0" encoding="UTF-8" ?>
<!DOCTYPE svg PUBLIC "-//W3C//DTD SVG 1.1//EN" "http://www.w3.org/Graphics/SVG/1.1/DTD/svg11.dtd">
<svg width="128pt" height="128pt" viewBox="0 0 128 128" version="1.1" xmlns="http://www.w3.org/2000/svg">
<g id="#000000f5">
<path fill="#000000" opacity="0.96" d=" M 61.39 39.52 C 74.31 37.84 87.12 48.20 88.42 61.11 C 90.15 73.34 81.07 85.70 69.02 88.06 C 59.86 90.15 49.83 86.17 44.30 78.63 C 39.90 72.84 38.27 65.02 40.15 57.98 C 42.55 48.24 51.40 40.52 61.39 39.52 M 58.42 42.60 C 50.24 44.56 43.64 51.64 42.28 59.94 C 40.82 67.72 43.75 76.21 49.99 81.16 C 57.10 87.03 67.94 87.66 75.73 82.76 C 82.14 78.89 86.14 71.49 86.05 64.02 C 86.16 56.53 82.16 49.10 75.73 45.21 C 70.63 42.02 64.23 41.17 58.42 42.60 Z" />
<path fill="#000000" opacity="0.96" d=" M 76.94 52.84 C 78.00 51.69 79.08 52.77 79.55 53.84 C 74.40 58.42 69.34 63.10 64.03 67.49 C 60.60 65.05 57.02 62.81 53.84 60.05 C 54.13 59.61 54.70 58.73 54.99 58.28 C 58.23 59.92 60.88 62.47 64.06 64.22 C 68.35 60.42 72.59 56.56 76.94 52.84 Z" />
</g>
</svg>
