<?xml version="1.0" encoding="UTF-8" ?>
<!DOCTYPE svg PUBLIC "-//W3C//DTD SVG 1.1//EN" "http://www.w3.org/Graphics/SVG/1.1/DTD/svg11.dtd">
<svg width="50pt" height="50pt" viewBox="0 0 50 50" version="1.1" xmlns="http://www.w3.org/2000/svg">
<g id="#d6d6d6ed">
<path fill="#d6d6d6" opacity="0.93" d=" M 17.37 1.59 C 30.73 -3.28 46.54 6.18 49.08 20.03 C 52.13 32.83 42.80 46.65 29.98 49.08 C 17.16 52.14 3.32 42.80 0.89 29.96 C -1.89 18.08 5.85 5.23 17.37 1.59 M 19.43 3.61 C 9.84 5.85 2.66 15.22 2.95 25.06 C 2.81 33.49 8.02 41.73 15.78 45.09 C 22.67 48.21 31.14 47.57 37.41 43.30 C 43.73 39.17 47.43 31.52 47.02 24.01 C 46.79 17.14 43.15 10.44 37.39 6.66 C 32.20 3.12 25.49 2.12 19.43 3.61 Z" />
<path fill="#d6d6d6" opacity="0.93" d=" M 37.93 13.82 C 38.97 12.65 40.12 13.78 40.58 14.84 C 35.36 19.30 30.53 24.29 24.98 28.32 C 21.46 26.22 18.12 23.77 14.95 21.16 C 15.23 20.71 15.78 19.80 16.06 19.34 C 19.18 20.74 21.56 23.29 24.52 24.94 C 25.71 25.16 26.37 23.83 27.25 23.27 C 30.80 20.11 34.32 16.90 37.93 13.82 Z" />
</g>
</svg>
