<?xml version="1.0" encoding="UTF-8" ?>
<!DOCTYPE svg PUBLIC "-//W3C//DTD SVG 1.1//EN" "http://www.w3.org/Graphics/SVG/1.1/DTD/svg11.dtd">
<svg width="108pt" height="103pt" viewBox="0 0 108 103" version="1.1" xmlns="http://www.w3.org/2000/svg">
<g id="#f03b3bff">
<path fill="#f03b3b" opacity="1.00" d=" M 23.64 0.00 L 37.38 0.00 C 40.29 1.26 43.39 2.17 46.04 3.97 C 49.27 6.11 51.41 9.49 54.52 11.78 C 58.09 5.88 64.32 2.39 70.60 0.00 L 85.40 0.00 C 90.91 2.36 96.88 4.38 100.79 9.21 C 104.46 13.25 106.24 18.58 108.00 23.64 L 108.00 41.33 C 106.27 46.20 105.31 51.34 102.99 56.00 C 92.79 76.70 74.23 91.67 54.60 103.00 L 53.51 103.00 C 50.09 100.07 45.77 98.52 42.19 95.82 C 36.84 91.88 31.26 88.16 26.71 83.28 C 17.03 74.32 8.18 63.96 3.53 51.43 C 1.67 47.25 1.65 42.56 0.00 38.31 L 0.00 25.68 C 1.41 21.33 1.92 16.55 4.82 12.83 C 8.97 6.13 16.24 2.12 23.64 0.00 Z" />
</g>
</svg>
