<?xml version="1.0" encoding="UTF-8" ?>
<!DOCTYPE svg PUBLIC "-//W3C//DTD SVG 1.1//EN" "http://www.w3.org/Graphics/SVG/1.1/DTD/svg11.dtd">
<svg width="256pt" height="256pt" viewBox="0 0 256 256" version="1.1" xmlns="http://www.w3.org/2000/svg">
<g id="#333333ff">
<path fill="#333333" opacity="1.00" d=" M 125.30 0.00 L 130.62 0.00 C 160.71 0.58 190.43 12.14 212.87 32.21 C 239.39 55.47 255.37 90.08 256.00 125.35 L 256.00 134.05 C 254.63 155.97 248.15 177.65 236.29 196.21 C 219.70 222.66 193.13 242.65 163.06 251.10 C 153.67 253.86 143.94 255.15 134.22 256.00 L 125.37 256.00 C 94.37 255.39 63.77 243.12 41.09 221.94 C 15.76 198.74 0.60 164.99 0.00 130.65 L 0.00 125.30 C 0.61 91.23 15.52 57.74 40.52 34.57 C 63.24 13.09 94.06 0.61 125.30 0.00 M 51.60 75.59 C 51.71 80.03 51.65 84.46 51.75 88.90 C 76.77 103.66 101.35 119.21 126.25 134.19 C 127.42 134.99 128.59 134.96 129.75 134.09 C 154.63 118.81 179.44 103.40 204.36 88.20 C 204.30 83.99 204.28 79.79 204.41 75.59 C 153.47 75.73 102.53 75.73 51.60 75.59 M 51.72 96.73 C 51.70 122.64 51.56 148.57 51.79 174.48 C 53.21 173.37 54.55 172.15 55.61 170.68 C 68.26 154.37 81.49 138.50 93.98 122.06 C 79.74 113.89 66.13 104.58 51.72 96.73 M 162.00 122.09 C 163.46 124.82 165.67 127.05 167.54 129.50 C 178.67 143.61 189.97 157.60 201.05 171.75 C 201.89 172.88 203.09 173.65 204.23 174.46 C 204.45 148.33 204.26 122.19 204.32 96.06 C 190.07 104.48 175.97 113.23 162.00 122.09 M 155.27 126.06 C 146.17 131.69 137.03 137.27 127.94 142.92 C 121.52 139.06 115.16 135.11 108.75 131.24 C 105.61 129.39 102.71 127.02 99.15 126.04 C 85.38 144.42 70.35 161.85 56.61 180.25 C 104.14 180.38 151.67 180.35 199.20 180.27 C 185.58 162.06 170.77 144.72 157.06 126.56 C 156.62 126.43 155.72 126.18 155.27 126.06 Z" />
</g>
</svg>
