<?xml version="1.0" encoding="UTF-8" ?>
<!DOCTYPE svg PUBLIC "-//W3C//DTD SVG 1.1//EN" "http://www.w3.org/Graphics/SVG/1.1/DTD/svg11.dtd">
<svg width="128pt" height="128pt" viewBox="0 0 128 128" version="1.1" xmlns="http://www.w3.org/2000/svg">
<g id="#838383ff">
<path fill="#838383" opacity="1.00" d=" M 23.02 0.00 L 104.98 0.00 C 104.98 11.47 105.01 22.94 105.02 34.40 C 112.62 35.43 122.15 33.16 128.00 39.48 L 128.00 102.50 C 120.51 104.45 112.71 104.70 105.04 105.42 C 105.01 112.95 104.99 120.47 104.98 128.00 L 23.03 128.00 C 23.01 120.50 22.99 113.00 22.97 105.49 C 15.41 104.57 6.48 106.83 0.00 101.74 L 0.00 38.04 C 7.19 34.76 15.27 35.13 22.97 34.37 C 22.98 22.92 23.02 11.46 23.02 0.00 M 29.00 6.01 C 29.00 15.67 29.00 25.33 29.00 34.99 C 52.33 35.01 75.67 35.01 99.00 34.99 C 99.00 25.33 99.00 15.67 99.00 6.01 C 75.67 5.99 52.33 5.99 29.00 6.01 M 6.24 41.32 C 5.80 60.55 6.02 79.77 6.01 99.00 C 11.67 99.00 17.33 99.00 22.99 99.00 C 22.97 89.67 23.03 80.34 23.01 71.01 C 50.34 70.99 77.66 70.99 104.99 71.01 C 104.97 80.34 105.03 89.67 105.01 99.00 C 110.67 99.00 116.33 98.99 121.99 99.00 C 121.98 79.74 122.22 60.47 121.68 41.21 C 83.20 40.88 44.71 40.75 6.24 41.32 M 29.00 77.01 C 28.99 92.00 28.99 107.00 29.00 121.99 C 52.33 122.01 75.67 122.01 99.00 121.99 C 99.00 107.00 99.00 92.00 99.00 77.01 C 75.67 76.99 52.33 76.99 29.00 77.01 Z" />
<path fill="#838383" opacity="1.00" d=" M 104.70 51.84 C 105.56 48.23 110.79 48.56 113.10 46.86 C 114.51 50.22 118.15 56.23 113.34 58.39 C 108.65 61.84 102.79 56.53 104.70 51.84 Z" />
<path fill="#838383" opacity="1.00" d=" M 35.42 87.28 C 54.64 86.86 73.88 86.74 93.09 87.39 C 92.57 89.28 91.99 91.16 91.38 93.02 C 72.56 92.22 53.40 94.84 34.75 91.70 C 34.97 90.23 35.20 88.75 35.42 87.28 Z" />
<path fill="#838383" opacity="1.00" d=" M 34.37 97.68 C 50.54 96.66 66.76 96.87 82.96 97.23 C 82.64 101.74 80.32 103.59 75.99 102.79 C 63.67 103.30 51.29 103.52 38.97 102.90 C 36.20 102.88 35.57 99.59 34.37 97.68 Z" />
<path fill="#838383" opacity="1.00" d=" M 35.66 107.08 C 54.53 106.94 73.39 106.96 92.26 107.06 C 92.31 109.01 92.34 110.96 92.34 112.92 C 73.47 113.06 54.60 113.04 35.74 112.94 C 35.69 110.99 35.66 109.03 35.66 107.08 Z" />
</g>
</svg>
