<?xml version="1.0" encoding="UTF-8" ?>
<!DOCTYPE svg PUBLIC "-//W3C//DTD SVG 1.1//EN" "http://www.w3.org/Graphics/SVG/1.1/DTD/svg11.dtd">
<svg width="256pt" height="256pt" viewBox="0 0 256 256" version="1.1" xmlns="http://www.w3.org/2000/svg">
<g id="#333333ff">
<path fill="#333333" opacity="1.00" d=" M 125.24 0.00 L 134.34 0.00 C 155.68 1.40 176.79 7.59 194.99 18.93 C 221.09 34.91 241.11 60.54 250.17 89.79 C 253.79 101.26 255.62 113.25 256.00 125.27 L 256.00 134.34 C 254.57 155.67 248.41 176.78 237.06 194.96 C 219.47 223.79 190.05 245.10 157.11 252.64 C 149.67 254.47 142.03 255.21 134.42 256.00 L 125.29 256.00 C 97.18 255.38 69.36 245.32 47.55 227.53 C 21.77 206.83 4.52 175.79 0.90 142.90 C 0.61 140.08 0.30 137.27 0.00 134.45 L 0.00 125.20 C 0.65 91.15 15.56 57.69 40.55 34.54 C 63.25 13.10 94.03 0.63 125.24 0.00 M 113.29 69.49 C 107.60 79.84 109.84 91.99 109.35 103.28 C 104.41 103.31 99.47 103.30 94.54 103.28 C 94.60 111.66 94.65 120.04 94.51 128.42 C 99.48 128.18 104.46 128.36 109.43 128.28 C 109.26 152.02 109.44 175.75 109.34 199.49 C 119.36 199.39 129.38 199.39 139.41 199.49 C 139.10 175.73 139.51 151.96 139.20 128.20 C 145.66 128.46 152.13 128.16 158.60 128.39 C 159.96 120.08 160.44 111.64 161.49 103.29 C 154.11 103.34 146.73 103.19 139.35 103.38 C 139.38 97.60 139.02 91.78 139.55 86.02 C 140.43 82.78 144.01 81.72 147.00 81.58 C 151.79 81.38 156.60 81.53 161.40 81.54 C 161.28 73.20 161.27 64.85 161.41 56.50 C 152.31 56.81 143.16 56.11 134.09 56.94 C 125.76 57.67 117.28 61.85 113.29 69.49 Z" />
</g>
</svg>
