<svg width="91" height="91" xmlns="http://www.w3.org/2000/svg">

 <g>
  <title>background</title>
  <rect fill="none" id="canvas_background" height="402" width="582" y="-1" x="-1"/>
 </g>
 <g>
  <title>Layer 1</title>
  <path id="svg_5" fill="#FFFFFF" d="m7.542,43.522c0,-21.086 17.094,-38.18 38.18,-38.18c21.082,0 38.176,17.094 38.176,38.18"/>
  <path id="svg_6" fill="#434B56" d="m83.897,45.79c-1.252,0 -2.268,-1.016 -2.268,-2.268c0.001,-19.802 -16.108,-35.912 -35.907,-35.912c-19.803,0 -35.912,16.11 -35.912,35.912c0,1.252 -1.016,2.268 -2.268,2.268c-1.254,0 -2.268,-1.016 -2.268,-2.268c0,-22.303 18.145,-40.447 40.447,-40.447c22.301,0 40.443,18.145 40.443,40.447c0.001,1.252 -1.013,2.268 -2.267,2.268z"/>
  <path id="svg_7" fill="#434B56" d="m26.06,36.255c-1.252,0 -2.268,-1.016 -2.268,-2.27l0,-4.16c0,-1.252 1.016,-2.268 2.268,-2.268c1.254,0 2.268,1.016 2.268,2.268l0,4.16c-0.001,1.254 -1.015,2.27 -2.268,2.27z"/>
  <path id="svg_8" fill="#434B56" d="m35.515,27.753c-0.742,0 -1.471,-0.365 -1.904,-1.035l-1.596,-2.463c-0.682,-1.053 -0.381,-2.457 0.672,-3.137c1.049,-0.68 2.455,-0.381 3.135,0.67l1.596,2.463c0.682,1.053 0.381,2.457 -0.672,3.137c-0.382,0.248 -0.808,0.365 -1.231,0.365z"/>
  <path id="svg_9" fill="#434B56" d="m40.808,36.253c-0.701,0 -1.393,-0.324 -1.838,-0.936l-1.51,-2.078c-0.736,-1.014 -0.512,-2.432 0.502,-3.168s2.432,-0.512 3.168,0.502l1.51,2.078c0.736,1.014 0.512,2.432 -0.502,3.168c-0.403,0.293 -0.869,0.434 -1.33,0.434z"/>
  <path id="svg_10" fill="#434B56" d="m52.522,26.521c-0.504,0 -1.012,-0.168 -1.432,-0.51l-1.512,-1.23c-0.971,-0.791 -1.117,-2.219 -0.326,-3.191s2.221,-1.117 3.191,-0.326l1.512,1.23c0.971,0.791 1.117,2.221 0.326,3.191c-0.448,0.55 -1.1,0.836 -1.759,0.836z"/>
  <path id="svg_11" fill="#434B56" d="m61.364,36.2c-1.254,0 -2.268,-1.016 -2.268,-2.268l0,-1.972c0,-1.252 1.014,-2.268 2.268,-2.268c1.252,0 2.268,1.016 2.268,2.268l0,1.973c0,1.252 -1.016,2.267 -2.268,2.267z"/>
  <path id="svg_12" fill="#434B56" d="m59.946,21.513c-0.92,0 -1.787,-0.566 -2.127,-1.48l-0.42,-1.135c-0.434,-1.174 0.164,-2.479 1.34,-2.914c1.174,-0.436 2.479,0.164 2.914,1.338l0.42,1.135c0.436,1.174 -0.164,2.479 -1.338,2.914c-0.259,0.095 -0.527,0.142 -0.789,0.142z"/>
  <path id="svg_13" fill="#434B56" d="m70.495,36.253c-0.881,0 -1.719,-0.518 -2.088,-1.379c-0.49,-1.152 0.047,-2.484 1.197,-2.977l2.441,-1.039c1.152,-0.49 2.484,0.045 2.977,1.197c0.49,1.152 -0.047,2.484 -1.197,2.975l-2.441,1.041c-0.289,0.123 -0.592,0.182 -0.889,0.182z"/>
  <path id="svg_14" fill="#434B56" d="m15.021,23.091c-0.463,0 -0.93,-0.143 -1.334,-0.436l-2.943,-2.146c-1.012,-0.738 -1.234,-2.156 -0.498,-3.168c0.738,-1.012 2.156,-1.236 3.17,-0.498l2.943,2.146c1.012,0.738 1.234,2.156 0.498,3.168c-0.446,0.61 -1.135,0.934 -1.836,0.934z"/>
  <path id="svg_15" fill="#434B56" d="m45.503,15.841c-0.061,0 -0.119,-0.002 -0.18,-0.006c-1.248,-0.098 -2.182,-1.189 -2.084,-2.438l0.219,-2.822c0.096,-1.248 1.205,-2.182 2.438,-2.084c1.248,0.096 2.182,1.188 2.084,2.438l-0.219,2.82c-0.092,1.189 -1.086,2.092 -2.258,2.092z"/>
  <path id="svg_16" fill="#434B56" d="m31.735,13.021c-1.254,0 -2.268,-1.016 -2.268,-2.27l0,-5.408c0,-1.252 1.014,-2.268 2.268,-2.268c1.252,0 2.268,1.016 2.268,2.268l0,5.408c0,1.254 -1.016,2.27 -2.268,2.27z"/>
  <path id="svg_17" fill="#434B56" d="m12.079,36.253l-4.537,0c-1.254,0 -2.268,-1.016 -2.268,-2.268c0,-1.254 1.014,-2.27 2.268,-2.27l4.537,0c1.252,0 2.268,1.016 2.268,2.27c0,1.252 -1.016,2.268 -2.268,2.268z"/>
  <path id="svg_18" fill="#434B56" d="m65.308,13.021c-0.461,0 -0.926,-0.141 -1.326,-0.432c-1.016,-0.734 -1.244,-2.15 -0.51,-3.166l2.334,-3.227c0.734,-1.016 2.154,-1.244 3.168,-0.51s1.242,2.152 0.508,3.168l-2.334,3.227c-0.444,0.613 -1.137,0.94 -1.84,0.94z"/>
  <path id="svg_19" fill="#434B56" d="m70.476,25.29c-0.789,0 -1.555,-0.41 -1.973,-1.145c-0.621,-1.088 -0.242,-2.473 0.846,-3.094l6.623,-3.779c1.088,-0.619 2.475,-0.24 3.094,0.848c0.621,1.088 0.242,2.473 -0.846,3.094l-6.623,3.777c-0.354,0.203 -0.741,0.299 -1.121,0.299z"/>
  <path id="svg_21" fill="#00bc87" d="m27.093444,78.814444l0,7.037l31.668,0c3.049,0 5.535,-2.492 5.535,-5.533l0,-1.504"/>
  <path stroke="null" id="svg_22" fill="#434B56" d="m58.761444,88.119444l-33.935,0l0,-9.110555l4.535,0l0,4.670322l29.4,0c1.801,0 3.268,-1.434386 3.268,-3.197751l0,-1.472571l4.535,0l0,1.472571c0,4.213081 -3.5,7.637984 -7.803,7.637984z"/>
  <path id="svg_24" fill="#00bc87" d="m37.673,78.62l-8.916,0c-13.918,-5.863 -24.088,-18.824 -26.043,-34.34l85.572,0c-1.953,15.516 -12.127,28.477 -26.043,34.34l-7.725,0"/>
  <path id="svg_25" fill="#434B56" d="m62.896444,80.888l-8.184,0l0,-4.535l7.26,0c12.391,-5.385 21.332,-16.625 23.854,-29.805l-80.264,0c2.524,13.181 11.465,24.422 23.854,29.805l8.451,0l0,4.535l-9.375,0l-0.422,-0.178c-14.889,-6.273 -25.393,-20.123 -27.412,-36.147l-0.322,-2.553l90.717,0l-0.322,2.553c-2.018,16.022 -12.522,29.874 -27.413,36.147l-0.422,0.178z"/>
  <path id="svg_26" fill="#FFFFFF" d="m65.438,68.487c-0.811,0 -1.594,-0.436 -2.002,-1.199c-0.592,-1.105 -0.174,-2.479 0.93,-3.07c4.475,-2.393 7.752,-6.578 8.988,-11.482c0.307,-1.215 1.545,-1.951 2.754,-1.645c1.215,0.307 1.951,1.541 1.645,2.754c-1.549,6.141 -5.648,11.379 -11.248,14.373c-0.34,0.181 -0.705,0.269 -1.067,0.269z"/>
  <path id="svg_27" fill="#FFFFFF" d="m59.946,72.062c-1.482,0 -2.688,-1.205 -2.688,-2.688s1.205,-2.688 2.688,-2.688c1.484,0 2.689,1.205 2.689,2.688s-1.204,2.688 -2.689,2.688z"/>
 </g>
</svg>